G04*
G04 #@! TF.GenerationSoftware,Altium Limited,Altium Designer,24.10.1 (45)*
G04*
G04 Layer_Color=65535*
%FSLAX42Y42*%
%MOMM*%
G71*
G04*
G04 #@! TF.SameCoordinates,6BE155C9-00B4-4612-B876-D31AFA52546B*
G04*
G04*
G04 #@! TF.FilePolarity,Positive*
G04*
G01*
G75*
%ADD10C,0.20*%
%ADD11C,0.25*%
%ADD12C,0.20*%
D10*
X6617Y9423D02*
Y9677D01*
X4585Y9423D02*
X6617D01*
X4585D02*
Y9677D01*
X6617D01*
X12649Y10897D02*
Y11405D01*
X15951Y10897D02*
Y11405D01*
X12649Y10897D02*
X15951D01*
X12649Y11405D02*
X15951D01*
X4077Y10897D02*
Y11405D01*
X7379Y10897D02*
Y11405D01*
X4077Y10897D02*
X7379D01*
X4077Y11405D02*
X7379D01*
D11*
X4600Y9764D02*
Y9916D01*
X4676D01*
X4702Y9891D01*
Y9840D01*
X4676Y9815D01*
X4600D01*
X4752Y9916D02*
X4854D01*
Y9891D01*
X4752Y9789D01*
Y9764D01*
X14161Y10693D02*
Y10846D01*
X14237D01*
X14262Y10820D01*
Y10770D01*
X14237Y10744D01*
X14161D01*
X14414Y10846D02*
X14364Y10820D01*
X14313Y10770D01*
Y10719D01*
X14338Y10693D01*
X14389D01*
X14414Y10719D01*
Y10744D01*
X14389Y10770D01*
X14313D01*
X4407Y10681D02*
Y10833D01*
X4483D01*
X4509Y10808D01*
Y10757D01*
X4483Y10732D01*
X4407D01*
X4661Y10833D02*
X4559D01*
Y10757D01*
X4610Y10782D01*
X4635D01*
X4661Y10757D01*
Y10706D01*
X4635Y10681D01*
X4585D01*
X4559Y10706D01*
D12*
X15854Y10566D02*
X15938D01*
X15854Y10482D01*
Y10461D01*
X15875Y10439D01*
X15917D01*
X15938Y10461D01*
X15913Y10770D02*
X15871D01*
X15892D01*
Y10643D01*
X15913Y10664D01*
X12641Y10782D02*
X12725D01*
X12641Y10698D01*
Y10677D01*
X12662Y10655D01*
X12704D01*
X12725Y10677D01*
X12514Y10655D02*
X12598D01*
Y10719D01*
X12556Y10698D01*
X12535D01*
X12514Y10719D01*
Y10761D01*
X12535Y10782D01*
X12577D01*
X12598Y10761D01*
X12653Y10579D02*
X12738D01*
X12653Y10494D01*
Y10473D01*
X12675Y10452D01*
X12717D01*
X12738Y10473D01*
X12527Y10452D02*
X12569Y10473D01*
X12611Y10516D01*
Y10558D01*
X12590Y10579D01*
X12548D01*
X12527Y10558D01*
Y10537D01*
X12548Y10516D01*
X12611D01*
X7281Y10668D02*
X7366D01*
X7281Y10583D01*
Y10562D01*
X7303Y10541D01*
X7345D01*
X7366Y10562D01*
X7341Y10846D02*
X7298D01*
X7319D01*
Y10719D01*
X7341Y10740D01*
X4246Y10833D02*
X4331D01*
X4246Y10748D01*
Y10727D01*
X4267Y10706D01*
X4310D01*
X4331Y10727D01*
X4119Y10706D02*
X4204D01*
Y10770D01*
X4161Y10748D01*
X4140D01*
X4119Y10770D01*
Y10812D01*
X4140Y10833D01*
X4183D01*
X4204Y10812D01*
X4246Y10643D02*
X4331D01*
X4246Y10558D01*
Y10537D01*
X4267Y10516D01*
X4310D01*
X4331Y10537D01*
X4119Y10516D02*
X4161Y10537D01*
X4204Y10579D01*
Y10621D01*
X4183Y10643D01*
X4140D01*
X4119Y10621D01*
Y10600D01*
X4140Y10579D01*
X4204D01*
M02*
