G04*
G04 #@! TF.GenerationSoftware,Altium Limited,Altium Designer,24.10.1 (45)*
G04*
G04 Layer_Physical_Order=1*
G04 Layer_Color=255*
%FSLAX42Y42*%
%MOMM*%
G71*
G04*
G04 #@! TF.SameCoordinates,6BE155C9-00B4-4612-B876-D31AFA52546B*
G04*
G04*
G04 #@! TF.FilePolarity,Positive*
G04*
G01*
G75*
%ADD11C,0.25*%
%ADD16R,1.50X1.50*%
%ADD17C,1.50*%
%ADD18C,1.27*%
G36*
X6317Y9965D02*
X6327Y9948D01*
X6331Y9945D01*
X6325Y9932D01*
X5937D01*
X5927Y9930D01*
X5919Y9924D01*
X5844Y9849D01*
X5832Y9854D01*
Y9969D01*
X6316D01*
X6317Y9965D01*
D02*
G37*
G36*
X5128Y11434D02*
X5131Y11427D01*
X5132Y11422D01*
X5074Y11364D01*
X5069Y11356D01*
X5067Y11346D01*
Y11181D01*
X4993D01*
X4991Y11194D01*
X5000Y11196D01*
X5020Y11207D01*
X5036Y11224D01*
X5047Y11244D01*
X5053Y11266D01*
Y11289D01*
X5047Y11311D01*
X5036Y11331D01*
X5020Y11348D01*
X5000Y11359D01*
X4977Y11365D01*
X4954D01*
X4932Y11359D01*
X4912Y11348D01*
X4896Y11331D01*
X4884Y11311D01*
X4878Y11289D01*
Y11266D01*
X4884Y11244D01*
X4896Y11224D01*
X4912Y11207D01*
X4932Y11196D01*
X4940Y11194D01*
X4938Y11181D01*
X4843D01*
X4833Y11179D01*
X4825Y11173D01*
X4753Y11101D01*
X4746Y11105D01*
X4723Y11111D01*
X4700D01*
X4678Y11105D01*
X4658Y11094D01*
X4642Y11077D01*
X4630Y11057D01*
X4624Y11035D01*
Y11012D01*
X4630Y10990D01*
X4642Y10970D01*
X4658Y10953D01*
X4678Y10942D01*
X4700Y10936D01*
X4723D01*
X4746Y10942D01*
X4766Y10953D01*
X4782Y10970D01*
X4793Y10990D01*
X4799Y11012D01*
Y11035D01*
X4793Y11057D01*
X4789Y11065D01*
X4854Y11129D01*
X5078D01*
X5088Y11131D01*
X5096Y11137D01*
X5111Y11152D01*
X5117Y11160D01*
X5119Y11170D01*
Y11335D01*
X5162Y11379D01*
X5719D01*
X5720Y11378D01*
X5718Y11372D01*
X5713Y11365D01*
X5694Y11359D01*
X5674Y11348D01*
X5658Y11331D01*
X5646Y11311D01*
X5640Y11289D01*
Y11266D01*
X5646Y11244D01*
X5658Y11224D01*
X5674Y11207D01*
X5694Y11196D01*
X5716Y11190D01*
X5739D01*
X5762Y11196D01*
X5782Y11207D01*
X5790Y11215D01*
X5802Y11210D01*
Y11091D01*
X5790Y11086D01*
X5782Y11094D01*
X5762Y11105D01*
X5739Y11111D01*
X5716D01*
X5694Y11105D01*
X5674Y11094D01*
X5658Y11077D01*
X5646Y11057D01*
X5640Y11035D01*
Y11012D01*
X5646Y10990D01*
X5658Y10970D01*
X5674Y10953D01*
X5694Y10942D01*
X5716Y10936D01*
X5739D01*
X5762Y10942D01*
X5782Y10953D01*
X5790Y10961D01*
X5802Y10956D01*
Y10099D01*
X5804Y10089D01*
X5810Y10080D01*
X5825Y10065D01*
X5833Y10060D01*
X5843Y10058D01*
X6325D01*
X6331Y10045D01*
X6327Y10042D01*
X6317Y10024D01*
X6316Y10021D01*
X5206D01*
X5042Y10185D01*
X5047Y10198D01*
X5052D01*
X5071Y10203D01*
X5089Y10213D01*
X5103Y10228D01*
X5113Y10245D01*
X5118Y10264D01*
Y10284D01*
X5113Y10304D01*
X5111Y10307D01*
X5238Y10434D01*
X5244Y10442D01*
X5246Y10452D01*
Y10494D01*
X5249Y10495D01*
X5266Y10505D01*
X5281Y10520D01*
X5291Y10537D01*
X5296Y10556D01*
Y10576D01*
X5291Y10596D01*
X5281Y10613D01*
X5266Y10627D01*
X5249Y10637D01*
X5230Y10643D01*
X5210D01*
X5190Y10637D01*
X5173Y10627D01*
X5159Y10613D01*
X5149Y10596D01*
X5144Y10576D01*
Y10556D01*
X5149Y10537D01*
X5159Y10520D01*
X5173Y10505D01*
X5190Y10495D01*
X5194Y10494D01*
Y10463D01*
X5074Y10343D01*
X5071Y10345D01*
X5052Y10350D01*
X5032D01*
X5012Y10345D01*
X4995Y10335D01*
X4981Y10321D01*
X4971Y10304D01*
X4966Y10284D01*
Y10279D01*
X4953Y10274D01*
X4903Y10324D01*
Y10380D01*
X4906Y10381D01*
X4924Y10391D01*
X4938Y10405D01*
X4948Y10423D01*
X4953Y10442D01*
Y10462D01*
X4948Y10482D01*
X4938Y10499D01*
X4935Y10501D01*
X4950Y10516D01*
X4956Y10525D01*
X4958Y10535D01*
Y10560D01*
X4971Y10573D01*
X4974Y10572D01*
X4994Y10566D01*
X5014D01*
X5033Y10572D01*
X5051Y10582D01*
X5065Y10596D01*
X5075Y10613D01*
X5080Y10633D01*
Y10653D01*
X5075Y10672D01*
X5065Y10689D01*
X5051Y10704D01*
X5033Y10714D01*
X5014Y10719D01*
X4994D01*
X4974Y10714D01*
X4957Y10704D01*
X4943Y10689D01*
X4933Y10672D01*
X4928Y10653D01*
Y10633D01*
X4933Y10613D01*
X4935Y10610D01*
X4914Y10589D01*
X4908Y10581D01*
X4906Y10571D01*
Y10545D01*
X4888Y10528D01*
X4887Y10528D01*
X4867D01*
X4847Y10523D01*
X4830Y10513D01*
X4816Y10499D01*
X4806Y10482D01*
X4801Y10462D01*
Y10442D01*
X4806Y10423D01*
X4816Y10405D01*
X4830Y10391D01*
X4847Y10381D01*
X4851Y10380D01*
Y10314D01*
X4853Y10304D01*
X4858Y10295D01*
X5177Y9977D01*
X5186Y9971D01*
X5196Y9969D01*
X5780D01*
Y9839D01*
X5709Y9769D01*
X5704Y9760D01*
X5703Y9757D01*
X5700Y9754D01*
X5690Y9751D01*
X5689Y9751D01*
X5685Y9754D01*
X5675Y9756D01*
X5654D01*
X5644Y9754D01*
X5635Y9749D01*
X5515Y9628D01*
X5508Y9632D01*
X5485Y9638D01*
X5462D01*
X5440Y9632D01*
X5420Y9621D01*
X5404Y9604D01*
X5392Y9584D01*
X5386Y9562D01*
Y9539D01*
X5392Y9517D01*
X5404Y9497D01*
X5420Y9480D01*
X5440Y9469D01*
X5462Y9463D01*
X5485D01*
X5508Y9469D01*
X5528Y9480D01*
X5544Y9497D01*
X5555Y9517D01*
X5561Y9539D01*
Y9562D01*
X5555Y9584D01*
X5551Y9591D01*
X5652Y9692D01*
X5664Y9687D01*
Y9665D01*
X5609Y9610D01*
X5603Y9602D01*
X5601Y9592D01*
Y9509D01*
X5603Y9499D01*
X5609Y9491D01*
X5668Y9432D01*
X5676Y9426D01*
X5686Y9424D01*
X5769D01*
X5779Y9426D01*
X5788Y9432D01*
X5862Y9506D01*
X5868Y9515D01*
X5870Y9525D01*
Y9802D01*
X5948Y9880D01*
X6425D01*
X6435Y9882D01*
X6443Y9888D01*
X6495Y9940D01*
X6501Y9948D01*
X6503Y9958D01*
Y10032D01*
X6501Y10042D01*
X6495Y10050D01*
X6443Y10102D01*
X6435Y10108D01*
X6425Y10110D01*
X5854D01*
Y11319D01*
X5852Y11329D01*
X5846Y11337D01*
X5767Y11417D01*
X5772Y11430D01*
X7398Y11417D01*
Y10808D01*
X12712Y10833D01*
Y10948D01*
X12725Y10952D01*
X12742Y10942D01*
X12765Y10936D01*
X12788D01*
X12810Y10942D01*
X12830Y10953D01*
X12846Y10970D01*
X12858Y10990D01*
X12864Y11012D01*
Y11035D01*
X12858Y11057D01*
X12846Y11077D01*
X12830Y11094D01*
X12810Y11105D01*
X12788Y11111D01*
X12765D01*
X12742Y11105D01*
X12725Y11095D01*
X12712Y11100D01*
Y11202D01*
X12725Y11206D01*
X12742Y11196D01*
X12765Y11190D01*
X12788D01*
X12810Y11196D01*
X12830Y11207D01*
X12846Y11224D01*
X12858Y11244D01*
X12864Y11266D01*
Y11289D01*
X12858Y11311D01*
X12846Y11331D01*
X12830Y11348D01*
X12810Y11359D01*
X12788Y11365D01*
X12765D01*
X12742Y11359D01*
X12725Y11349D01*
X12712Y11354D01*
Y11398D01*
X15919Y11417D01*
X15920Y11375D01*
X15908Y11365D01*
X15737D01*
Y11190D01*
X15911D01*
X15912Y11190D01*
X15924Y11188D01*
X15932Y10770D01*
X15874Y9373D01*
X4058D01*
Y11417D01*
X4052Y11423D01*
X4052Y11431D01*
X4063Y11442D01*
X5128Y11434D01*
D02*
G37*
%LPC*%
G36*
X15582Y11365D02*
X15559D01*
X15536Y11359D01*
X15516Y11348D01*
X15500Y11331D01*
X15488Y11311D01*
X15482Y11289D01*
Y11266D01*
X15488Y11244D01*
X15500Y11224D01*
X15516Y11207D01*
X15536Y11196D01*
X15559Y11190D01*
X15582D01*
X15604Y11196D01*
X15624Y11207D01*
X15640Y11224D01*
X15652Y11244D01*
X15658Y11266D01*
Y11289D01*
X15652Y11311D01*
X15640Y11331D01*
X15624Y11348D01*
X15604Y11359D01*
X15582Y11365D01*
D02*
G37*
G36*
X15328D02*
X15305D01*
X15282Y11359D01*
X15262Y11348D01*
X15246Y11331D01*
X15234Y11311D01*
X15229Y11289D01*
Y11266D01*
X15234Y11244D01*
X15246Y11224D01*
X15262Y11207D01*
X15282Y11196D01*
X15305Y11190D01*
X15328D01*
X15350Y11196D01*
X15370Y11207D01*
X15386Y11224D01*
X15398Y11244D01*
X15404Y11266D01*
Y11289D01*
X15398Y11311D01*
X15386Y11331D01*
X15370Y11348D01*
X15350Y11359D01*
X15328Y11365D01*
D02*
G37*
G36*
X15074D02*
X15051D01*
X15028Y11359D01*
X15008Y11348D01*
X14992Y11331D01*
X14980Y11311D01*
X14974Y11289D01*
Y11266D01*
X14980Y11244D01*
X14992Y11224D01*
X15008Y11207D01*
X15028Y11196D01*
X15051Y11190D01*
X15074D01*
X15096Y11196D01*
X15116Y11207D01*
X15132Y11224D01*
X15144Y11244D01*
X15150Y11266D01*
Y11289D01*
X15144Y11311D01*
X15132Y11331D01*
X15116Y11348D01*
X15096Y11359D01*
X15074Y11365D01*
D02*
G37*
G36*
X14820D02*
X14797D01*
X14774Y11359D01*
X14754Y11348D01*
X14738Y11331D01*
X14726Y11311D01*
X14721Y11289D01*
Y11266D01*
X14726Y11244D01*
X14738Y11224D01*
X14754Y11207D01*
X14774Y11196D01*
X14797Y11190D01*
X14820D01*
X14842Y11196D01*
X14862Y11207D01*
X14878Y11224D01*
X14890Y11244D01*
X14896Y11266D01*
Y11289D01*
X14890Y11311D01*
X14878Y11331D01*
X14862Y11348D01*
X14842Y11359D01*
X14820Y11365D01*
D02*
G37*
G36*
X14566D02*
X14543D01*
X14520Y11359D01*
X14500Y11348D01*
X14484Y11331D01*
X14472Y11311D01*
X14466Y11289D01*
Y11266D01*
X14472Y11244D01*
X14484Y11224D01*
X14500Y11207D01*
X14520Y11196D01*
X14543Y11190D01*
X14566D01*
X14588Y11196D01*
X14608Y11207D01*
X14624Y11224D01*
X14636Y11244D01*
X14642Y11266D01*
Y11289D01*
X14636Y11311D01*
X14624Y11331D01*
X14608Y11348D01*
X14588Y11359D01*
X14566Y11365D01*
D02*
G37*
G36*
X14312D02*
X14289D01*
X14266Y11359D01*
X14246Y11348D01*
X14230Y11331D01*
X14218Y11311D01*
X14212Y11289D01*
Y11266D01*
X14218Y11244D01*
X14230Y11224D01*
X14246Y11207D01*
X14266Y11196D01*
X14289Y11190D01*
X14312D01*
X14334Y11196D01*
X14354Y11207D01*
X14370Y11224D01*
X14382Y11244D01*
X14388Y11266D01*
Y11289D01*
X14382Y11311D01*
X14370Y11331D01*
X14354Y11348D01*
X14334Y11359D01*
X14312Y11365D01*
D02*
G37*
G36*
X14058D02*
X14035D01*
X14012Y11359D01*
X13992Y11348D01*
X13976Y11331D01*
X13964Y11311D01*
X13959Y11289D01*
Y11266D01*
X13964Y11244D01*
X13976Y11224D01*
X13992Y11207D01*
X14012Y11196D01*
X14035Y11190D01*
X14058D01*
X14080Y11196D01*
X14100Y11207D01*
X14116Y11224D01*
X14128Y11244D01*
X14134Y11266D01*
Y11289D01*
X14128Y11311D01*
X14116Y11331D01*
X14100Y11348D01*
X14080Y11359D01*
X14058Y11365D01*
D02*
G37*
G36*
X13804D02*
X13781D01*
X13758Y11359D01*
X13738Y11348D01*
X13722Y11331D01*
X13710Y11311D01*
X13704Y11289D01*
Y11266D01*
X13710Y11244D01*
X13722Y11224D01*
X13738Y11207D01*
X13758Y11196D01*
X13781Y11190D01*
X13804D01*
X13826Y11196D01*
X13846Y11207D01*
X13862Y11224D01*
X13874Y11244D01*
X13880Y11266D01*
Y11289D01*
X13874Y11311D01*
X13862Y11331D01*
X13846Y11348D01*
X13826Y11359D01*
X13804Y11365D01*
D02*
G37*
G36*
X13550D02*
X13527D01*
X13504Y11359D01*
X13484Y11348D01*
X13468Y11331D01*
X13456Y11311D01*
X13451Y11289D01*
Y11266D01*
X13456Y11244D01*
X13468Y11224D01*
X13484Y11207D01*
X13504Y11196D01*
X13527Y11190D01*
X13550D01*
X13572Y11196D01*
X13592Y11207D01*
X13608Y11224D01*
X13620Y11244D01*
X13626Y11266D01*
Y11289D01*
X13620Y11311D01*
X13608Y11331D01*
X13592Y11348D01*
X13572Y11359D01*
X13550Y11365D01*
D02*
G37*
G36*
X13296D02*
X13273D01*
X13250Y11359D01*
X13230Y11348D01*
X13214Y11331D01*
X13202Y11311D01*
X13196Y11289D01*
Y11266D01*
X13202Y11244D01*
X13214Y11224D01*
X13230Y11207D01*
X13250Y11196D01*
X13273Y11190D01*
X13296D01*
X13318Y11196D01*
X13338Y11207D01*
X13354Y11224D01*
X13366Y11244D01*
X13372Y11266D01*
Y11289D01*
X13366Y11311D01*
X13354Y11331D01*
X13338Y11348D01*
X13318Y11359D01*
X13296Y11365D01*
D02*
G37*
G36*
X13042D02*
X13019D01*
X12996Y11359D01*
X12976Y11348D01*
X12960Y11331D01*
X12948Y11311D01*
X12943Y11289D01*
Y11266D01*
X12948Y11244D01*
X12960Y11224D01*
X12976Y11207D01*
X12996Y11196D01*
X13019Y11190D01*
X13042D01*
X13064Y11196D01*
X13084Y11207D01*
X13100Y11224D01*
X13112Y11244D01*
X13118Y11266D01*
Y11289D01*
X13112Y11311D01*
X13100Y11331D01*
X13084Y11348D01*
X13064Y11359D01*
X13042Y11365D01*
D02*
G37*
G36*
X7339D02*
X7164D01*
Y11190D01*
X7339D01*
Y11365D01*
D02*
G37*
G36*
X7009D02*
X6986D01*
X6964Y11359D01*
X6944Y11348D01*
X6928Y11331D01*
X6916Y11311D01*
X6910Y11289D01*
Y11266D01*
X6916Y11244D01*
X6928Y11224D01*
X6944Y11207D01*
X6964Y11196D01*
X6986Y11190D01*
X7009D01*
X7032Y11196D01*
X7052Y11207D01*
X7068Y11224D01*
X7079Y11244D01*
X7085Y11266D01*
Y11289D01*
X7079Y11311D01*
X7068Y11331D01*
X7052Y11348D01*
X7032Y11359D01*
X7009Y11365D01*
D02*
G37*
G36*
X6755D02*
X6732D01*
X6710Y11359D01*
X6690Y11348D01*
X6674Y11331D01*
X6662Y11311D01*
X6656Y11289D01*
Y11266D01*
X6662Y11244D01*
X6674Y11224D01*
X6690Y11207D01*
X6710Y11196D01*
X6732Y11190D01*
X6755D01*
X6778Y11196D01*
X6798Y11207D01*
X6814Y11224D01*
X6825Y11244D01*
X6831Y11266D01*
Y11289D01*
X6825Y11311D01*
X6814Y11331D01*
X6798Y11348D01*
X6778Y11359D01*
X6755Y11365D01*
D02*
G37*
G36*
X6501D02*
X6478D01*
X6456Y11359D01*
X6436Y11348D01*
X6420Y11331D01*
X6408Y11311D01*
X6402Y11289D01*
Y11266D01*
X6408Y11244D01*
X6420Y11224D01*
X6436Y11207D01*
X6456Y11196D01*
X6478Y11190D01*
X6501D01*
X6524Y11196D01*
X6544Y11207D01*
X6560Y11224D01*
X6571Y11244D01*
X6577Y11266D01*
Y11289D01*
X6571Y11311D01*
X6560Y11331D01*
X6544Y11348D01*
X6524Y11359D01*
X6501Y11365D01*
D02*
G37*
G36*
X6247D02*
X6224D01*
X6202Y11359D01*
X6182Y11348D01*
X6166Y11331D01*
X6154Y11311D01*
X6148Y11289D01*
Y11266D01*
X6154Y11244D01*
X6166Y11224D01*
X6182Y11207D01*
X6202Y11196D01*
X6224Y11190D01*
X6247D01*
X6270Y11196D01*
X6290Y11207D01*
X6306Y11224D01*
X6317Y11244D01*
X6323Y11266D01*
Y11289D01*
X6317Y11311D01*
X6306Y11331D01*
X6290Y11348D01*
X6270Y11359D01*
X6247Y11365D01*
D02*
G37*
G36*
X5993D02*
X5970D01*
X5948Y11359D01*
X5928Y11348D01*
X5912Y11331D01*
X5900Y11311D01*
X5894Y11289D01*
Y11266D01*
X5900Y11244D01*
X5912Y11224D01*
X5928Y11207D01*
X5948Y11196D01*
X5970Y11190D01*
X5993D01*
X6016Y11196D01*
X6036Y11207D01*
X6052Y11224D01*
X6063Y11244D01*
X6069Y11266D01*
Y11289D01*
X6063Y11311D01*
X6052Y11331D01*
X6036Y11348D01*
X6016Y11359D01*
X5993Y11365D01*
D02*
G37*
G36*
X5485D02*
X5462D01*
X5440Y11359D01*
X5420Y11348D01*
X5404Y11331D01*
X5392Y11311D01*
X5386Y11289D01*
Y11266D01*
X5392Y11244D01*
X5404Y11224D01*
X5420Y11207D01*
X5440Y11196D01*
X5462Y11190D01*
X5485D01*
X5508Y11196D01*
X5528Y11207D01*
X5544Y11224D01*
X5555Y11244D01*
X5561Y11266D01*
Y11289D01*
X5555Y11311D01*
X5544Y11331D01*
X5528Y11348D01*
X5508Y11359D01*
X5485Y11365D01*
D02*
G37*
G36*
X5231D02*
X5208D01*
X5186Y11359D01*
X5166Y11348D01*
X5150Y11331D01*
X5138Y11311D01*
X5132Y11289D01*
Y11266D01*
X5138Y11244D01*
X5150Y11224D01*
X5166Y11207D01*
X5186Y11196D01*
X5208Y11190D01*
X5231D01*
X5254Y11196D01*
X5274Y11207D01*
X5290Y11224D01*
X5301Y11244D01*
X5307Y11266D01*
Y11289D01*
X5301Y11311D01*
X5290Y11331D01*
X5274Y11348D01*
X5254Y11359D01*
X5231Y11365D01*
D02*
G37*
G36*
X4723D02*
X4700D01*
X4678Y11359D01*
X4658Y11348D01*
X4642Y11331D01*
X4630Y11311D01*
X4624Y11289D01*
Y11266D01*
X4630Y11244D01*
X4642Y11224D01*
X4658Y11207D01*
X4678Y11196D01*
X4700Y11190D01*
X4723D01*
X4746Y11196D01*
X4766Y11207D01*
X4782Y11224D01*
X4793Y11244D01*
X4799Y11266D01*
Y11289D01*
X4793Y11311D01*
X4782Y11331D01*
X4766Y11348D01*
X4746Y11359D01*
X4723Y11365D01*
D02*
G37*
G36*
X4469D02*
X4446D01*
X4424Y11359D01*
X4404Y11348D01*
X4388Y11331D01*
X4376Y11311D01*
X4370Y11289D01*
Y11266D01*
X4376Y11244D01*
X4388Y11224D01*
X4404Y11207D01*
X4424Y11196D01*
X4446Y11190D01*
X4469D01*
X4492Y11196D01*
X4512Y11207D01*
X4528Y11224D01*
X4539Y11244D01*
X4545Y11266D01*
Y11289D01*
X4539Y11311D01*
X4528Y11331D01*
X4512Y11348D01*
X4492Y11359D01*
X4469Y11365D01*
D02*
G37*
G36*
X4215D02*
X4192D01*
X4170Y11359D01*
X4150Y11348D01*
X4134Y11331D01*
X4122Y11311D01*
X4116Y11289D01*
Y11266D01*
X4122Y11244D01*
X4134Y11224D01*
X4150Y11207D01*
X4170Y11196D01*
X4192Y11190D01*
X4215D01*
X4238Y11196D01*
X4258Y11207D01*
X4274Y11224D01*
X4285Y11244D01*
X4291Y11266D01*
Y11289D01*
X4285Y11311D01*
X4274Y11331D01*
X4258Y11348D01*
X4238Y11359D01*
X4215Y11365D01*
D02*
G37*
G36*
X15582Y11111D02*
X15577D01*
Y11030D01*
X15658D01*
Y11035D01*
X15652Y11057D01*
X15640Y11077D01*
X15624Y11094D01*
X15604Y11105D01*
X15582Y11111D01*
D02*
G37*
G36*
X15836D02*
X15831D01*
Y11030D01*
X15912D01*
Y11035D01*
X15906Y11057D01*
X15894Y11077D01*
X15878Y11094D01*
X15858Y11105D01*
X15836Y11111D01*
D02*
G37*
G36*
X7263D02*
X7258D01*
Y11030D01*
X7339D01*
Y11035D01*
X7333Y11057D01*
X7322Y11077D01*
X7306Y11094D01*
X7286Y11105D01*
X7263Y11111D01*
D02*
G37*
G36*
X7009D02*
X7004D01*
Y11030D01*
X7085D01*
Y11035D01*
X7079Y11057D01*
X7068Y11077D01*
X7052Y11094D01*
X7032Y11105D01*
X7009Y11111D01*
D02*
G37*
G36*
X15564D02*
X15559D01*
X15536Y11105D01*
X15516Y11094D01*
X15500Y11077D01*
X15488Y11057D01*
X15482Y11035D01*
Y11030D01*
X15564D01*
Y11111D01*
D02*
G37*
G36*
X15818D02*
X15813D01*
X15790Y11105D01*
X15770Y11094D01*
X15754Y11077D01*
X15742Y11057D01*
X15737Y11035D01*
Y11030D01*
X15818D01*
Y11111D01*
D02*
G37*
G36*
X7245D02*
X7240D01*
X7218Y11105D01*
X7198Y11094D01*
X7182Y11077D01*
X7170Y11057D01*
X7164Y11035D01*
Y11030D01*
X7245D01*
Y11111D01*
D02*
G37*
G36*
X6991D02*
X6986D01*
X6964Y11105D01*
X6944Y11094D01*
X6928Y11077D01*
X6916Y11057D01*
X6910Y11035D01*
Y11030D01*
X6991D01*
Y11111D01*
D02*
G37*
G36*
X15912Y11017D02*
X15831D01*
Y10936D01*
X15836D01*
X15858Y10942D01*
X15878Y10953D01*
X15894Y10970D01*
X15906Y10990D01*
X15912Y11012D01*
Y11017D01*
D02*
G37*
G36*
X15818D02*
X15737D01*
Y11012D01*
X15742Y10990D01*
X15754Y10970D01*
X15770Y10953D01*
X15790Y10942D01*
X15813Y10936D01*
X15818D01*
Y11017D01*
D02*
G37*
G36*
X15658D02*
X15577D01*
Y10936D01*
X15582D01*
X15604Y10942D01*
X15624Y10953D01*
X15640Y10970D01*
X15652Y10990D01*
X15658Y11012D01*
Y11017D01*
D02*
G37*
G36*
X15564D02*
X15482D01*
Y11012D01*
X15488Y10990D01*
X15500Y10970D01*
X15516Y10953D01*
X15536Y10942D01*
X15559Y10936D01*
X15564D01*
Y11017D01*
D02*
G37*
G36*
X15328Y11111D02*
X15305D01*
X15282Y11105D01*
X15262Y11094D01*
X15246Y11077D01*
X15234Y11057D01*
X15229Y11035D01*
Y11012D01*
X15234Y10990D01*
X15246Y10970D01*
X15262Y10953D01*
X15282Y10942D01*
X15305Y10936D01*
X15328D01*
X15350Y10942D01*
X15370Y10953D01*
X15386Y10970D01*
X15398Y10990D01*
X15404Y11012D01*
Y11035D01*
X15398Y11057D01*
X15386Y11077D01*
X15370Y11094D01*
X15350Y11105D01*
X15328Y11111D01*
D02*
G37*
G36*
X15074D02*
X15051D01*
X15028Y11105D01*
X15008Y11094D01*
X14992Y11077D01*
X14980Y11057D01*
X14974Y11035D01*
Y11012D01*
X14980Y10990D01*
X14992Y10970D01*
X15008Y10953D01*
X15028Y10942D01*
X15051Y10936D01*
X15074D01*
X15096Y10942D01*
X15116Y10953D01*
X15132Y10970D01*
X15144Y10990D01*
X15150Y11012D01*
Y11035D01*
X15144Y11057D01*
X15132Y11077D01*
X15116Y11094D01*
X15096Y11105D01*
X15074Y11111D01*
D02*
G37*
G36*
X14820D02*
X14797D01*
X14774Y11105D01*
X14754Y11094D01*
X14738Y11077D01*
X14726Y11057D01*
X14721Y11035D01*
Y11012D01*
X14726Y10990D01*
X14738Y10970D01*
X14754Y10953D01*
X14774Y10942D01*
X14797Y10936D01*
X14820D01*
X14842Y10942D01*
X14862Y10953D01*
X14878Y10970D01*
X14890Y10990D01*
X14896Y11012D01*
Y11035D01*
X14890Y11057D01*
X14878Y11077D01*
X14862Y11094D01*
X14842Y11105D01*
X14820Y11111D01*
D02*
G37*
G36*
X14566D02*
X14543D01*
X14520Y11105D01*
X14500Y11094D01*
X14484Y11077D01*
X14472Y11057D01*
X14466Y11035D01*
Y11012D01*
X14472Y10990D01*
X14484Y10970D01*
X14500Y10953D01*
X14520Y10942D01*
X14543Y10936D01*
X14566D01*
X14588Y10942D01*
X14608Y10953D01*
X14624Y10970D01*
X14636Y10990D01*
X14642Y11012D01*
Y11035D01*
X14636Y11057D01*
X14624Y11077D01*
X14608Y11094D01*
X14588Y11105D01*
X14566Y11111D01*
D02*
G37*
G36*
X14312D02*
X14289D01*
X14266Y11105D01*
X14246Y11094D01*
X14230Y11077D01*
X14218Y11057D01*
X14212Y11035D01*
Y11012D01*
X14218Y10990D01*
X14230Y10970D01*
X14246Y10953D01*
X14266Y10942D01*
X14289Y10936D01*
X14312D01*
X14334Y10942D01*
X14354Y10953D01*
X14370Y10970D01*
X14382Y10990D01*
X14388Y11012D01*
Y11035D01*
X14382Y11057D01*
X14370Y11077D01*
X14354Y11094D01*
X14334Y11105D01*
X14312Y11111D01*
D02*
G37*
G36*
X14058D02*
X14035D01*
X14012Y11105D01*
X13992Y11094D01*
X13976Y11077D01*
X13964Y11057D01*
X13959Y11035D01*
Y11012D01*
X13964Y10990D01*
X13976Y10970D01*
X13992Y10953D01*
X14012Y10942D01*
X14035Y10936D01*
X14058D01*
X14080Y10942D01*
X14100Y10953D01*
X14116Y10970D01*
X14128Y10990D01*
X14134Y11012D01*
Y11035D01*
X14128Y11057D01*
X14116Y11077D01*
X14100Y11094D01*
X14080Y11105D01*
X14058Y11111D01*
D02*
G37*
G36*
X13804D02*
X13781D01*
X13758Y11105D01*
X13738Y11094D01*
X13722Y11077D01*
X13710Y11057D01*
X13704Y11035D01*
Y11012D01*
X13710Y10990D01*
X13722Y10970D01*
X13738Y10953D01*
X13758Y10942D01*
X13781Y10936D01*
X13804D01*
X13826Y10942D01*
X13846Y10953D01*
X13862Y10970D01*
X13874Y10990D01*
X13880Y11012D01*
Y11035D01*
X13874Y11057D01*
X13862Y11077D01*
X13846Y11094D01*
X13826Y11105D01*
X13804Y11111D01*
D02*
G37*
G36*
X13550D02*
X13527D01*
X13504Y11105D01*
X13484Y11094D01*
X13468Y11077D01*
X13456Y11057D01*
X13451Y11035D01*
Y11012D01*
X13456Y10990D01*
X13468Y10970D01*
X13484Y10953D01*
X13504Y10942D01*
X13527Y10936D01*
X13550D01*
X13572Y10942D01*
X13592Y10953D01*
X13608Y10970D01*
X13620Y10990D01*
X13626Y11012D01*
Y11035D01*
X13620Y11057D01*
X13608Y11077D01*
X13592Y11094D01*
X13572Y11105D01*
X13550Y11111D01*
D02*
G37*
G36*
X13296D02*
X13273D01*
X13250Y11105D01*
X13230Y11094D01*
X13214Y11077D01*
X13202Y11057D01*
X13196Y11035D01*
Y11012D01*
X13202Y10990D01*
X13214Y10970D01*
X13230Y10953D01*
X13250Y10942D01*
X13273Y10936D01*
X13296D01*
X13318Y10942D01*
X13338Y10953D01*
X13354Y10970D01*
X13366Y10990D01*
X13372Y11012D01*
Y11035D01*
X13366Y11057D01*
X13354Y11077D01*
X13338Y11094D01*
X13318Y11105D01*
X13296Y11111D01*
D02*
G37*
G36*
X13042D02*
X13019D01*
X12996Y11105D01*
X12976Y11094D01*
X12960Y11077D01*
X12948Y11057D01*
X12943Y11035D01*
Y11012D01*
X12948Y10990D01*
X12960Y10970D01*
X12976Y10953D01*
X12996Y10942D01*
X13019Y10936D01*
X13042D01*
X13064Y10942D01*
X13084Y10953D01*
X13100Y10970D01*
X13112Y10990D01*
X13118Y11012D01*
Y11035D01*
X13112Y11057D01*
X13100Y11077D01*
X13084Y11094D01*
X13064Y11105D01*
X13042Y11111D01*
D02*
G37*
G36*
X7339Y11017D02*
X7258D01*
Y10936D01*
X7263D01*
X7286Y10942D01*
X7306Y10953D01*
X7322Y10970D01*
X7333Y10990D01*
X7339Y11012D01*
Y11017D01*
D02*
G37*
G36*
X7245D02*
X7164D01*
Y11012D01*
X7170Y10990D01*
X7182Y10970D01*
X7198Y10953D01*
X7218Y10942D01*
X7240Y10936D01*
X7245D01*
Y11017D01*
D02*
G37*
G36*
X7085D02*
X7004D01*
Y10936D01*
X7009D01*
X7032Y10942D01*
X7052Y10953D01*
X7068Y10970D01*
X7079Y10990D01*
X7085Y11012D01*
Y11017D01*
D02*
G37*
G36*
X6991D02*
X6910D01*
Y11012D01*
X6916Y10990D01*
X6928Y10970D01*
X6944Y10953D01*
X6964Y10942D01*
X6986Y10936D01*
X6991D01*
Y11017D01*
D02*
G37*
G36*
X6755Y11111D02*
X6732D01*
X6710Y11105D01*
X6690Y11094D01*
X6674Y11077D01*
X6662Y11057D01*
X6656Y11035D01*
Y11012D01*
X6662Y10990D01*
X6674Y10970D01*
X6690Y10953D01*
X6710Y10942D01*
X6732Y10936D01*
X6755D01*
X6778Y10942D01*
X6798Y10953D01*
X6814Y10970D01*
X6825Y10990D01*
X6831Y11012D01*
Y11035D01*
X6825Y11057D01*
X6814Y11077D01*
X6798Y11094D01*
X6778Y11105D01*
X6755Y11111D01*
D02*
G37*
G36*
X6501D02*
X6478D01*
X6456Y11105D01*
X6436Y11094D01*
X6420Y11077D01*
X6408Y11057D01*
X6402Y11035D01*
Y11012D01*
X6408Y10990D01*
X6420Y10970D01*
X6436Y10953D01*
X6456Y10942D01*
X6478Y10936D01*
X6501D01*
X6524Y10942D01*
X6544Y10953D01*
X6560Y10970D01*
X6571Y10990D01*
X6577Y11012D01*
Y11035D01*
X6571Y11057D01*
X6560Y11077D01*
X6544Y11094D01*
X6524Y11105D01*
X6501Y11111D01*
D02*
G37*
G36*
X6247D02*
X6224D01*
X6202Y11105D01*
X6182Y11094D01*
X6166Y11077D01*
X6154Y11057D01*
X6148Y11035D01*
Y11012D01*
X6154Y10990D01*
X6166Y10970D01*
X6182Y10953D01*
X6202Y10942D01*
X6224Y10936D01*
X6247D01*
X6270Y10942D01*
X6290Y10953D01*
X6306Y10970D01*
X6317Y10990D01*
X6323Y11012D01*
Y11035D01*
X6317Y11057D01*
X6306Y11077D01*
X6290Y11094D01*
X6270Y11105D01*
X6247Y11111D01*
D02*
G37*
G36*
X5993D02*
X5970D01*
X5948Y11105D01*
X5928Y11094D01*
X5912Y11077D01*
X5900Y11057D01*
X5894Y11035D01*
Y11012D01*
X5900Y10990D01*
X5912Y10970D01*
X5928Y10953D01*
X5948Y10942D01*
X5970Y10936D01*
X5993D01*
X6016Y10942D01*
X6036Y10953D01*
X6052Y10970D01*
X6063Y10990D01*
X6069Y11012D01*
Y11035D01*
X6063Y11057D01*
X6052Y11077D01*
X6036Y11094D01*
X6016Y11105D01*
X5993Y11111D01*
D02*
G37*
G36*
X5485D02*
X5462D01*
X5440Y11105D01*
X5420Y11094D01*
X5404Y11077D01*
X5392Y11057D01*
X5386Y11035D01*
Y11012D01*
X5392Y10990D01*
X5404Y10970D01*
X5420Y10953D01*
X5440Y10942D01*
X5462Y10936D01*
X5485D01*
X5508Y10942D01*
X5528Y10953D01*
X5544Y10970D01*
X5555Y10990D01*
X5561Y11012D01*
Y11035D01*
X5555Y11057D01*
X5544Y11077D01*
X5528Y11094D01*
X5508Y11105D01*
X5485Y11111D01*
D02*
G37*
G36*
X5231D02*
X5208D01*
X5186Y11105D01*
X5166Y11094D01*
X5150Y11077D01*
X5138Y11057D01*
X5132Y11035D01*
Y11012D01*
X5138Y10990D01*
X5150Y10970D01*
X5166Y10953D01*
X5186Y10942D01*
X5208Y10936D01*
X5231D01*
X5254Y10942D01*
X5274Y10953D01*
X5290Y10970D01*
X5301Y10990D01*
X5307Y11012D01*
Y11035D01*
X5301Y11057D01*
X5290Y11077D01*
X5274Y11094D01*
X5254Y11105D01*
X5231Y11111D01*
D02*
G37*
G36*
X4977D02*
X4954D01*
X4932Y11105D01*
X4912Y11094D01*
X4896Y11077D01*
X4884Y11057D01*
X4878Y11035D01*
Y11012D01*
X4884Y10990D01*
X4896Y10970D01*
X4912Y10953D01*
X4932Y10942D01*
X4954Y10936D01*
X4977D01*
X5000Y10942D01*
X5020Y10953D01*
X5036Y10970D01*
X5047Y10990D01*
X5053Y11012D01*
Y11035D01*
X5047Y11057D01*
X5036Y11077D01*
X5020Y11094D01*
X5000Y11105D01*
X4977Y11111D01*
D02*
G37*
G36*
X4469D02*
X4446D01*
X4424Y11105D01*
X4404Y11094D01*
X4388Y11077D01*
X4376Y11057D01*
X4370Y11035D01*
Y11012D01*
X4376Y10990D01*
X4388Y10970D01*
X4404Y10953D01*
X4424Y10942D01*
X4446Y10936D01*
X4469D01*
X4492Y10942D01*
X4512Y10953D01*
X4528Y10970D01*
X4539Y10990D01*
X4545Y11012D01*
Y11035D01*
X4539Y11057D01*
X4528Y11077D01*
X4512Y11094D01*
X4492Y11105D01*
X4469Y11111D01*
D02*
G37*
G36*
X4215D02*
X4192D01*
X4170Y11105D01*
X4150Y11094D01*
X4134Y11077D01*
X4122Y11057D01*
X4116Y11035D01*
Y11012D01*
X4122Y10990D01*
X4134Y10970D01*
X4150Y10953D01*
X4170Y10942D01*
X4192Y10936D01*
X4215D01*
X4238Y10942D01*
X4258Y10953D01*
X4274Y10970D01*
X4285Y10990D01*
X4291Y11012D01*
Y11035D01*
X4285Y11057D01*
X4274Y11077D01*
X4258Y11094D01*
X4238Y11105D01*
X4215Y11111D01*
D02*
G37*
G36*
X13282Y10871D02*
X13261D01*
X13242Y10866D01*
X13225Y10856D01*
X13211Y10842D01*
X13200Y10824D01*
X13195Y10805D01*
Y10785D01*
X13200Y10766D01*
X13211Y10748D01*
X13225Y10734D01*
X13242Y10724D01*
X13261Y10719D01*
X13282D01*
X13301Y10724D01*
X13304Y10726D01*
X13418Y10612D01*
X13416Y10609D01*
X13411Y10589D01*
Y10569D01*
X13416Y10550D01*
X13426Y10532D01*
X13441Y10518D01*
X13458Y10508D01*
X13477Y10503D01*
X13497D01*
X13517Y10508D01*
X13534Y10518D01*
X13548Y10532D01*
X13558Y10550D01*
X13564Y10569D01*
Y10589D01*
X13558Y10609D01*
X13548Y10626D01*
X13534Y10640D01*
X13517Y10650D01*
X13497Y10655D01*
X13477D01*
X13458Y10650D01*
X13455Y10648D01*
X13341Y10762D01*
X13343Y10766D01*
X13348Y10785D01*
Y10805D01*
X13343Y10824D01*
X13332Y10842D01*
X13318Y10856D01*
X13301Y10866D01*
X13282Y10871D01*
D02*
G37*
G36*
X12431Y10655D02*
X12411D01*
X12391Y10650D01*
X12374Y10640D01*
X12360Y10626D01*
X12350Y10609D01*
X12344Y10589D01*
Y10569D01*
X12350Y10550D01*
X12360Y10532D01*
X12374Y10518D01*
X12391Y10508D01*
X12411Y10503D01*
X12431D01*
X12450Y10508D01*
X12467Y10518D01*
X12482Y10532D01*
X12486Y10541D01*
X12752D01*
X12756Y10524D01*
X12766Y10507D01*
X12780Y10493D01*
X12798Y10483D01*
X12817Y10478D01*
X12837D01*
X12856Y10483D01*
X12874Y10493D01*
X12888Y10507D01*
X12898Y10524D01*
X12903Y10544D01*
Y10564D01*
X12898Y10583D01*
X12888Y10600D01*
X12874Y10615D01*
X12856Y10625D01*
X12837Y10630D01*
X12817D01*
X12798Y10625D01*
X12780Y10615D01*
X12766Y10600D01*
X12761Y10592D01*
X12496D01*
X12492Y10609D01*
X12482Y10626D01*
X12467Y10640D01*
X12450Y10650D01*
X12431Y10655D01*
D02*
G37*
G36*
X13116Y10820D02*
X13096D01*
X13077Y10815D01*
X13060Y10805D01*
X13045Y10791D01*
X13035Y10774D01*
X13030Y10754D01*
Y10734D01*
X13035Y10715D01*
X13045Y10697D01*
X13060Y10683D01*
X13077Y10673D01*
X13081Y10672D01*
Y10327D01*
X13082Y10317D01*
X13086Y10311D01*
X13084Y10308D01*
X13073Y10291D01*
X13068Y10272D01*
Y10252D01*
X13073Y10232D01*
X13084Y10215D01*
X13098Y10201D01*
X13115Y10191D01*
X13134Y10185D01*
X13155D01*
X13174Y10191D01*
X13191Y10201D01*
X13205Y10215D01*
X13216Y10232D01*
X13221Y10252D01*
Y10272D01*
X13216Y10291D01*
X13205Y10308D01*
X13191Y10323D01*
X13174Y10333D01*
X13155Y10338D01*
X13134D01*
X13132Y10350D01*
Y10672D01*
X13136Y10673D01*
X13153Y10683D01*
X13167Y10697D01*
X13177Y10715D01*
X13183Y10734D01*
Y10754D01*
X13177Y10774D01*
X13167Y10791D01*
X13153Y10805D01*
X13136Y10815D01*
X13116Y10820D01*
D02*
G37*
G36*
X6247Y9638D02*
X6242D01*
Y9557D01*
X6323D01*
Y9562D01*
X6317Y9584D01*
X6306Y9604D01*
X6290Y9621D01*
X6270Y9632D01*
X6247Y9638D01*
D02*
G37*
G36*
X6229D02*
X6224D01*
X6202Y9632D01*
X6182Y9621D01*
X6166Y9604D01*
X6154Y9584D01*
X6148Y9562D01*
Y9557D01*
X6229D01*
Y9638D01*
D02*
G37*
G36*
X6501D02*
X6478D01*
X6456Y9632D01*
X6436Y9621D01*
X6420Y9604D01*
X6408Y9584D01*
X6402Y9562D01*
Y9539D01*
X6408Y9517D01*
X6420Y9497D01*
X6436Y9480D01*
X6456Y9469D01*
X6478Y9463D01*
X6501D01*
X6524Y9469D01*
X6544Y9480D01*
X6560Y9497D01*
X6571Y9517D01*
X6577Y9539D01*
Y9562D01*
X6571Y9584D01*
X6560Y9604D01*
X6544Y9621D01*
X6524Y9632D01*
X6501Y9638D01*
D02*
G37*
G36*
X6323Y9544D02*
X6242D01*
Y9463D01*
X6247D01*
X6270Y9469D01*
X6290Y9480D01*
X6306Y9497D01*
X6317Y9517D01*
X6323Y9539D01*
Y9544D01*
D02*
G37*
G36*
X6229D02*
X6148D01*
Y9539D01*
X6154Y9517D01*
X6166Y9497D01*
X6182Y9480D01*
X6202Y9469D01*
X6224Y9463D01*
X6229D01*
Y9544D01*
D02*
G37*
G36*
X5993Y9638D02*
X5970D01*
X5948Y9632D01*
X5928Y9621D01*
X5912Y9604D01*
X5900Y9584D01*
X5894Y9562D01*
Y9539D01*
X5900Y9517D01*
X5912Y9497D01*
X5928Y9480D01*
X5948Y9469D01*
X5970Y9463D01*
X5993D01*
X6016Y9469D01*
X6036Y9480D01*
X6052Y9497D01*
X6063Y9517D01*
X6069Y9539D01*
Y9562D01*
X6063Y9584D01*
X6052Y9604D01*
X6036Y9621D01*
X6016Y9632D01*
X5993Y9638D01*
D02*
G37*
G36*
X5231D02*
X5208D01*
X5186Y9632D01*
X5166Y9621D01*
X5150Y9604D01*
X5138Y9584D01*
X5132Y9562D01*
Y9539D01*
X5138Y9517D01*
X5150Y9497D01*
X5166Y9480D01*
X5186Y9469D01*
X5208Y9463D01*
X5231D01*
X5254Y9469D01*
X5274Y9480D01*
X5290Y9497D01*
X5301Y9517D01*
X5307Y9539D01*
Y9562D01*
X5301Y9584D01*
X5290Y9604D01*
X5274Y9621D01*
X5254Y9632D01*
X5231Y9638D01*
D02*
G37*
G36*
X4977D02*
X4954D01*
X4932Y9632D01*
X4912Y9621D01*
X4896Y9604D01*
X4884Y9584D01*
X4878Y9562D01*
Y9539D01*
X4884Y9517D01*
X4896Y9497D01*
X4912Y9480D01*
X4932Y9469D01*
X4954Y9463D01*
X4977D01*
X5000Y9469D01*
X5020Y9480D01*
X5036Y9497D01*
X5047Y9517D01*
X5053Y9539D01*
Y9562D01*
X5047Y9584D01*
X5036Y9604D01*
X5020Y9621D01*
X5000Y9632D01*
X4977Y9638D01*
D02*
G37*
G36*
X4799D02*
X4624D01*
Y9463D01*
X4799D01*
Y9638D01*
D02*
G37*
%LPD*%
D11*
X4843Y11155D02*
X5078D01*
X5093Y11170D01*
X4712Y11024D02*
X4843Y11155D01*
X5093Y11170D02*
Y11346D01*
X5152Y11405D01*
X5743D01*
X5828Y11319D01*
X5844Y9525D02*
Y9813D01*
X5769Y9450D02*
X5844Y9525D01*
X6477Y9958D02*
Y10032D01*
X6425Y9906D02*
X6477Y9958D01*
X6425Y10084D02*
X6477Y10032D01*
X5806Y9829D02*
Y9995D01*
X5690Y9654D02*
Y9715D01*
X5728Y9550D02*
Y9751D01*
X5654Y9730D02*
X5675D01*
X5828Y10099D02*
X5843Y10084D01*
X5627Y9509D02*
Y9592D01*
X5844Y9813D02*
X5937Y9906D01*
X5686Y9450D02*
X5769D01*
X5474Y9550D02*
X5654Y9730D01*
X5675D02*
X5690Y9715D01*
X5828Y10099D02*
Y11319D01*
X5627Y9592D02*
X5690Y9654D01*
X5627Y9509D02*
X5686Y9450D01*
X5937Y9906D02*
X6425D01*
X5806Y9995D02*
X6388D01*
X5753D02*
X5806D01*
X5843Y10084D02*
X6425D01*
X5728Y9751D02*
X5806Y9829D01*
X5196Y9995D02*
X5753D01*
X4877Y10314D02*
X5196Y9995D01*
X5042Y10274D02*
X5220Y10452D01*
X4877Y10314D02*
Y10480D01*
X4932Y10535D01*
Y10571D01*
X5004Y10643D02*
Y10643D01*
X4932Y10571D02*
X5004Y10643D01*
X13145Y10262D02*
Y10289D01*
X13106Y10327D02*
Y10744D01*
Y10327D02*
X13145Y10289D01*
X13271Y10795D02*
X13487Y10579D01*
X12421D02*
X12433Y10566D01*
X12814D01*
X12827Y10554D01*
X5220Y10452D02*
Y10566D01*
D16*
X4712Y9550D02*
D03*
X15824Y11278D02*
D03*
X7252D02*
D03*
D17*
X4966Y9550D02*
D03*
X5220D02*
D03*
X5474D02*
D03*
X5728D02*
D03*
X5982D02*
D03*
X6236D02*
D03*
X6490D02*
D03*
X15824Y11024D02*
D03*
X15570Y11278D02*
D03*
Y11024D02*
D03*
X15316Y11278D02*
D03*
Y11024D02*
D03*
X15062Y11278D02*
D03*
Y11024D02*
D03*
X14808Y11278D02*
D03*
Y11024D02*
D03*
X14554Y11278D02*
D03*
Y11024D02*
D03*
X14300Y11278D02*
D03*
Y11024D02*
D03*
X14046Y11278D02*
D03*
Y11024D02*
D03*
X13792Y11278D02*
D03*
Y11024D02*
D03*
X13538Y11278D02*
D03*
Y11024D02*
D03*
X13284Y11278D02*
D03*
Y11024D02*
D03*
X13030Y11278D02*
D03*
Y11024D02*
D03*
X12776Y11278D02*
D03*
Y11024D02*
D03*
X7252D02*
D03*
X6998Y11278D02*
D03*
Y11024D02*
D03*
X6744Y11278D02*
D03*
Y11024D02*
D03*
X6490Y11278D02*
D03*
Y11024D02*
D03*
X6236Y11278D02*
D03*
Y11024D02*
D03*
X5982Y11278D02*
D03*
Y11024D02*
D03*
X5728Y11278D02*
D03*
Y11024D02*
D03*
X5474Y11278D02*
D03*
Y11024D02*
D03*
X5220Y11278D02*
D03*
Y11024D02*
D03*
X4966Y11278D02*
D03*
Y11024D02*
D03*
X4712Y11278D02*
D03*
Y11024D02*
D03*
X4458Y11278D02*
D03*
Y11024D02*
D03*
X4204Y11278D02*
D03*
Y11024D02*
D03*
D18*
X5042Y10274D02*
D03*
X6388Y9995D02*
D03*
X4877Y10452D02*
D03*
X5004Y10643D02*
D03*
X13106Y10744D02*
D03*
X13145Y10262D02*
D03*
X13487Y10579D02*
D03*
X13271Y10795D02*
D03*
X12827Y10554D02*
D03*
X12421Y10579D02*
D03*
X5220Y10566D02*
D03*
M02*
