G04*
G04 #@! TF.GenerationSoftware,Altium Limited,Altium Designer,24.10.1 (45)*
G04*
G04 Layer_Physical_Order=2*
G04 Layer_Color=16711680*
%FSLAX42Y42*%
%MOMM*%
G71*
G04*
G04 #@! TF.SameCoordinates,6BE155C9-00B4-4612-B876-D31AFA52546B*
G04*
G04*
G04 #@! TF.FilePolarity,Positive*
G04*
G01*
G75*
%ADD11C,0.25*%
%ADD16R,1.50X1.50*%
%ADD17C,1.50*%
%ADD18C,1.27*%
%ADD19C,0.25*%
G36*
X15918Y11375D02*
X15906Y11365D01*
X15737D01*
Y11190D01*
X15911D01*
X15912Y11190D01*
X15924Y11188D01*
X15977Y9363D01*
X15968Y9353D01*
X12517Y9411D01*
X12438Y9411D01*
X5807Y9435D01*
X5802Y9446D01*
X5879Y9523D01*
X5898D01*
X5900Y9517D01*
X5912Y9497D01*
X5928Y9480D01*
X5948Y9469D01*
X5970Y9463D01*
X5993D01*
X6016Y9469D01*
X6036Y9480D01*
X6052Y9497D01*
X6063Y9517D01*
X6069Y9539D01*
Y9562D01*
X6063Y9584D01*
X6059Y9591D01*
X6183Y9715D01*
X6189Y9724D01*
X6191Y9734D01*
Y10091D01*
X6335Y10236D01*
X13073D01*
X13073Y10232D01*
X13084Y10215D01*
X13098Y10201D01*
X13115Y10191D01*
X13134Y10185D01*
X13155D01*
X13174Y10191D01*
X13191Y10201D01*
X13205Y10215D01*
X13216Y10232D01*
X13221Y10252D01*
Y10272D01*
X13216Y10291D01*
X13205Y10308D01*
X13191Y10323D01*
X13174Y10333D01*
X13155Y10338D01*
X13134D01*
X13115Y10333D01*
X13098Y10323D01*
X13084Y10308D01*
X13073Y10291D01*
X13073Y10287D01*
X6325D01*
X6315Y10286D01*
X6306Y10280D01*
X6147Y10120D01*
X6141Y10112D01*
X6139Y10102D01*
Y9744D01*
X6023Y9628D01*
X6016Y9632D01*
X5993Y9638D01*
X5970D01*
X5948Y9632D01*
X5928Y9621D01*
X5912Y9604D01*
X5900Y9584D01*
X5898Y9575D01*
X5869D01*
X5859Y9573D01*
X5850Y9568D01*
X5828Y9545D01*
X5815Y9551D01*
Y9562D01*
X5809Y9584D01*
X5798Y9604D01*
X5782Y9621D01*
X5762Y9632D01*
X5739Y9638D01*
X5716D01*
X5694Y9632D01*
X5674Y9621D01*
X5658Y9604D01*
X5646Y9584D01*
X5640Y9562D01*
Y9539D01*
X5646Y9517D01*
X5658Y9497D01*
X5674Y9480D01*
X5694Y9469D01*
X5716Y9463D01*
X5727D01*
X5733Y9450D01*
X5718Y9435D01*
X5397Y9436D01*
X5396Y9436D01*
X5385Y9449D01*
X5385Y9449D01*
Y9503D01*
X5398Y9506D01*
X5404Y9497D01*
X5420Y9480D01*
X5440Y9469D01*
X5462Y9463D01*
X5485D01*
X5508Y9469D01*
X5528Y9480D01*
X5544Y9497D01*
X5555Y9517D01*
X5561Y9539D01*
Y9562D01*
X5555Y9584D01*
X5544Y9604D01*
X5528Y9621D01*
X5508Y9632D01*
X5500Y9634D01*
Y10325D01*
X5563Y10388D01*
X13297D01*
X13307Y10390D01*
X13315Y10396D01*
X13439Y10520D01*
X13441Y10518D01*
X13458Y10508D01*
X13477Y10503D01*
X13497D01*
X13501Y10504D01*
X13508Y10493D01*
X13036Y10021D01*
X6460D01*
X6459Y10024D01*
X6449Y10042D01*
X6435Y10056D01*
X6418Y10066D01*
X6398Y10071D01*
X6378D01*
X6359Y10066D01*
X6341Y10056D01*
X6327Y10042D01*
X6317Y10024D01*
X6312Y10005D01*
Y9985D01*
X6317Y9965D01*
X6327Y9948D01*
X6341Y9934D01*
X6359Y9924D01*
X6378Y9919D01*
X6398D01*
X6418Y9924D01*
X6435Y9934D01*
X6449Y9948D01*
X6459Y9965D01*
X6460Y9969D01*
X13047D01*
X13057Y9971D01*
X13065Y9977D01*
X13950Y10862D01*
X13956Y10870D01*
X13958Y10880D01*
Y10976D01*
X13970Y10979D01*
X13976Y10970D01*
X13992Y10953D01*
X14012Y10942D01*
X14035Y10936D01*
X14058D01*
X14080Y10942D01*
X14100Y10953D01*
X14116Y10970D01*
X14128Y10990D01*
X14134Y11012D01*
Y11035D01*
X14128Y11057D01*
X14116Y11077D01*
X14100Y11094D01*
X14080Y11105D01*
X14058Y11111D01*
X14035D01*
X14012Y11105D01*
X13992Y11094D01*
X13976Y11077D01*
X13970Y11068D01*
X13958Y11071D01*
Y11136D01*
X13956Y11146D01*
X13950Y11154D01*
X13921Y11183D01*
X13913Y11188D01*
X13903Y11190D01*
X13842D01*
X13839Y11203D01*
X13846Y11207D01*
X13862Y11224D01*
X13874Y11244D01*
X13880Y11266D01*
Y11289D01*
X13874Y11311D01*
X13862Y11331D01*
X13846Y11348D01*
X13826Y11359D01*
X13804Y11365D01*
X13781D01*
X13758Y11359D01*
X13738Y11348D01*
X13722Y11331D01*
X13710Y11311D01*
X13704Y11289D01*
Y11266D01*
X13710Y11244D01*
X13722Y11224D01*
X13738Y11207D01*
X13746Y11203D01*
X13742Y11190D01*
X13662D01*
X13616Y11237D01*
X13620Y11244D01*
X13626Y11266D01*
Y11289D01*
X13620Y11311D01*
X13608Y11331D01*
X13592Y11348D01*
X13572Y11359D01*
X13550Y11365D01*
X13527D01*
X13504Y11359D01*
X13484Y11348D01*
X13468Y11331D01*
X13456Y11311D01*
X13451Y11289D01*
Y11266D01*
X13456Y11244D01*
X13468Y11224D01*
X13484Y11207D01*
X13504Y11196D01*
X13527Y11190D01*
X13550D01*
X13572Y11196D01*
X13579Y11200D01*
X13633Y11146D01*
X13641Y11141D01*
X13651Y11139D01*
X13892D01*
X13906Y11125D01*
Y10891D01*
X13574Y10559D01*
X13563Y10565D01*
X13564Y10569D01*
Y10589D01*
X13558Y10609D01*
X13548Y10626D01*
X13534Y10640D01*
X13517Y10650D01*
X13497Y10655D01*
X13477D01*
X13458Y10650D01*
X13441Y10640D01*
X13426Y10626D01*
X13416Y10609D01*
X13411Y10589D01*
Y10569D01*
X13412Y10566D01*
X13286Y10440D01*
X12501D01*
X12496Y10453D01*
X12989Y10946D01*
X12996Y10942D01*
X13019Y10936D01*
X13042D01*
X13064Y10942D01*
X13084Y10953D01*
X13100Y10970D01*
X13106Y10979D01*
X13119Y10976D01*
Y10822D01*
X13116Y10820D01*
X13096D01*
X13077Y10815D01*
X13060Y10805D01*
X13045Y10791D01*
X13035Y10774D01*
X13030Y10754D01*
Y10734D01*
X13035Y10715D01*
X13045Y10697D01*
X13060Y10683D01*
X13077Y10673D01*
X13096Y10668D01*
X13116D01*
X13136Y10673D01*
X13153Y10683D01*
X13167Y10697D01*
X13177Y10715D01*
X13183Y10734D01*
Y10754D01*
X13177Y10774D01*
X13170Y10786D01*
Y11163D01*
X13168Y11173D01*
X13163Y11182D01*
X13108Y11237D01*
X13112Y11244D01*
X13118Y11266D01*
Y11289D01*
X13112Y11311D01*
X13100Y11331D01*
X13084Y11348D01*
X13064Y11359D01*
X13042Y11365D01*
X13019D01*
X12996Y11359D01*
X12976Y11348D01*
X12960Y11331D01*
X12948Y11311D01*
X12943Y11289D01*
Y11266D01*
X12948Y11244D01*
X12960Y11224D01*
X12976Y11207D01*
X12996Y11196D01*
X13019Y11190D01*
X13042D01*
X13064Y11196D01*
X13071Y11200D01*
X13119Y11153D01*
Y11071D01*
X13106Y11068D01*
X13100Y11077D01*
X13084Y11094D01*
X13064Y11105D01*
X13042Y11111D01*
X13019D01*
X12996Y11105D01*
X12976Y11094D01*
X12960Y11077D01*
X12948Y11057D01*
X12943Y11035D01*
Y11012D01*
X12948Y10990D01*
X12953Y10983D01*
X12461Y10491D01*
X12434D01*
X12432Y10503D01*
X12450Y10508D01*
X12467Y10518D01*
X12482Y10532D01*
X12492Y10550D01*
X12497Y10569D01*
Y10589D01*
X12492Y10609D01*
X12482Y10626D01*
X12467Y10640D01*
X12450Y10650D01*
X12431Y10655D01*
X12411D01*
X12391Y10650D01*
X12374Y10640D01*
X12360Y10626D01*
X12350Y10609D01*
X12345Y10592D01*
X5292D01*
X5291Y10596D01*
X5281Y10613D01*
X5266Y10627D01*
X5249Y10637D01*
X5246Y10638D01*
Y10940D01*
X5254Y10942D01*
X5274Y10953D01*
X5290Y10970D01*
X5301Y10990D01*
X5307Y11012D01*
Y11035D01*
X5301Y11057D01*
X5290Y11077D01*
X5274Y11094D01*
X5254Y11105D01*
X5231Y11111D01*
X5208D01*
X5186Y11105D01*
X5166Y11094D01*
X5150Y11077D01*
X5138Y11057D01*
X5132Y11035D01*
Y11012D01*
X5138Y10990D01*
X5150Y10970D01*
X5166Y10953D01*
X5186Y10942D01*
X5194Y10940D01*
Y10638D01*
X5190Y10637D01*
X5173Y10627D01*
X5159Y10613D01*
X5149Y10596D01*
X5144Y10576D01*
Y10556D01*
X5149Y10537D01*
X5159Y10520D01*
X5173Y10505D01*
X5190Y10495D01*
X5210Y10490D01*
X5230D01*
X5249Y10495D01*
X5266Y10505D01*
X5281Y10520D01*
X5291Y10537D01*
X5292Y10541D01*
X12355D01*
X12360Y10532D01*
X12374Y10518D01*
X12391Y10508D01*
X12409Y10503D01*
X12407Y10491D01*
X5372D01*
X5362Y10489D01*
X5354Y10483D01*
X5303Y10432D01*
X5297Y10424D01*
X5295Y10414D01*
Y10387D01*
X5265Y10356D01*
X5259Y10348D01*
X5257Y10338D01*
Y9804D01*
X5259Y9794D01*
X5265Y9786D01*
X5334Y9717D01*
Y9460D01*
X5323Y9449D01*
X5103D01*
X5043Y9509D01*
X5047Y9517D01*
X5053Y9539D01*
Y9562D01*
X5047Y9584D01*
X5036Y9604D01*
X5020Y9621D01*
X5000Y9632D01*
X4977Y9638D01*
X4954D01*
X4932Y9632D01*
X4912Y9621D01*
X4896Y9604D01*
X4884Y9584D01*
X4878Y9562D01*
Y9539D01*
X4884Y9517D01*
X4896Y9497D01*
X4912Y9480D01*
X4932Y9469D01*
X4954Y9463D01*
X4977D01*
X5000Y9469D01*
X5007Y9473D01*
X5039Y9441D01*
X5034Y9429D01*
X4770Y9424D01*
X4536Y9420D01*
X4236Y9720D01*
Y10888D01*
X4240Y10889D01*
X4274Y10903D01*
X4302Y10925D01*
X4325Y10954D01*
X4339Y10987D01*
X4343Y11024D01*
X4343Y11024D01*
X4346Y11035D01*
X4361Y11050D01*
X4372Y11044D01*
X4370Y11035D01*
Y11012D01*
X4376Y10990D01*
X4388Y10970D01*
X4404Y10953D01*
X4406Y10952D01*
Y9754D01*
X4408Y9744D01*
X4414Y9735D01*
X4595Y9554D01*
X4604Y9548D01*
X4613Y9547D01*
X4624D01*
Y9463D01*
X4799D01*
Y9638D01*
X4624D01*
Y9615D01*
X4612Y9610D01*
X4458Y9764D01*
Y10936D01*
X4469D01*
X4492Y10942D01*
X4512Y10953D01*
X4528Y10970D01*
X4539Y10990D01*
X4545Y11012D01*
Y11035D01*
X4539Y11057D01*
X4528Y11077D01*
X4512Y11094D01*
X4492Y11105D01*
X4469Y11111D01*
X4446D01*
X4438Y11109D01*
X4431Y11120D01*
X4457Y11146D01*
X4463Y11155D01*
X4465Y11164D01*
Y11190D01*
X4469D01*
X4492Y11196D01*
X4512Y11207D01*
X4528Y11224D01*
X4539Y11244D01*
X4545Y11266D01*
Y11289D01*
X4539Y11311D01*
X4528Y11331D01*
X4512Y11348D01*
X4492Y11359D01*
X4469Y11365D01*
X4446D01*
X4424Y11359D01*
X4404Y11348D01*
X4388Y11331D01*
X4376Y11311D01*
X4370Y11289D01*
Y11266D01*
X4376Y11244D01*
X4388Y11224D01*
X4404Y11207D01*
X4413Y11202D01*
Y11175D01*
X4306Y11068D01*
X4298Y11061D01*
X4298Y11060D01*
X4293Y11059D01*
X4291Y11059D01*
X4283Y11061D01*
X4274Y11077D01*
X4258Y11094D01*
X4238Y11105D01*
X4215Y11111D01*
X4192D01*
X4170Y11105D01*
X4150Y11094D01*
X4134Y11077D01*
X4122Y11057D01*
X4116Y11035D01*
Y11012D01*
X4122Y10990D01*
X4134Y10970D01*
X4150Y10953D01*
X4170Y10942D01*
X4192Y10936D01*
X4196Y10930D01*
X4197Y10924D01*
X4192Y10918D01*
X4191Y10916D01*
X4186Y10909D01*
X4185Y10899D01*
Y9709D01*
X4186Y9699D01*
X4192Y9690D01*
X4453Y9430D01*
X4448Y9418D01*
X4086Y9411D01*
X4077Y9420D01*
X4051Y11396D01*
X4060Y11405D01*
X7425D01*
X7425Y10767D01*
X8941D01*
X12649Y10783D01*
Y11405D01*
X15917Y11414D01*
X15918Y11375D01*
D02*
G37*
G36*
X5528Y10426D02*
X5455Y10354D01*
X5450Y10346D01*
X5448Y10336D01*
Y9634D01*
X5440Y9632D01*
X5420Y9621D01*
X5404Y9604D01*
X5398Y9595D01*
X5385Y9598D01*
Y9728D01*
X5383Y9738D01*
X5378Y9747D01*
X5309Y9815D01*
Y10327D01*
X5340Y10358D01*
X5345Y10366D01*
X5347Y10376D01*
Y10403D01*
X5383Y10439D01*
X5522D01*
X5528Y10426D01*
D02*
G37*
%LPC*%
G36*
X4215Y11365D02*
X4210D01*
Y11284D01*
X4291D01*
Y11289D01*
X4285Y11311D01*
X4274Y11331D01*
X4258Y11348D01*
X4238Y11359D01*
X4215Y11365D01*
D02*
G37*
G36*
X14820D02*
X14815D01*
Y11284D01*
X14896D01*
Y11289D01*
X14890Y11311D01*
X14878Y11331D01*
X14862Y11348D01*
X14842Y11359D01*
X14820Y11365D01*
D02*
G37*
G36*
X12788D02*
X12783D01*
Y11284D01*
X12864D01*
Y11289D01*
X12858Y11311D01*
X12846Y11331D01*
X12830Y11348D01*
X12810Y11359D01*
X12788Y11365D01*
D02*
G37*
G36*
X6247D02*
X6242D01*
Y11284D01*
X6323D01*
Y11289D01*
X6317Y11311D01*
X6306Y11331D01*
X6290Y11348D01*
X6270Y11359D01*
X6247Y11365D01*
D02*
G37*
G36*
X4197D02*
X4192D01*
X4170Y11359D01*
X4150Y11348D01*
X4134Y11331D01*
X4122Y11311D01*
X4116Y11289D01*
Y11284D01*
X4197D01*
Y11365D01*
D02*
G37*
G36*
X14802D02*
X14797D01*
X14774Y11359D01*
X14754Y11348D01*
X14738Y11331D01*
X14726Y11311D01*
X14721Y11289D01*
Y11284D01*
X14802D01*
Y11365D01*
D02*
G37*
G36*
X12770D02*
X12765D01*
X12742Y11359D01*
X12722Y11348D01*
X12706Y11331D01*
X12694Y11311D01*
X12689Y11289D01*
Y11284D01*
X12770D01*
Y11365D01*
D02*
G37*
G36*
X6229D02*
X6224D01*
X6202Y11359D01*
X6182Y11348D01*
X6166Y11331D01*
X6154Y11311D01*
X6148Y11289D01*
Y11284D01*
X6229D01*
Y11365D01*
D02*
G37*
G36*
X15582D02*
X15559D01*
X15536Y11359D01*
X15516Y11348D01*
X15500Y11331D01*
X15488Y11311D01*
X15482Y11289D01*
Y11266D01*
X15488Y11244D01*
X15500Y11224D01*
X15516Y11207D01*
X15536Y11196D01*
X15559Y11190D01*
X15582D01*
X15604Y11196D01*
X15624Y11207D01*
X15640Y11224D01*
X15652Y11244D01*
X15658Y11266D01*
Y11289D01*
X15652Y11311D01*
X15640Y11331D01*
X15624Y11348D01*
X15604Y11359D01*
X15582Y11365D01*
D02*
G37*
G36*
X15328D02*
X15305D01*
X15282Y11359D01*
X15262Y11348D01*
X15246Y11331D01*
X15234Y11311D01*
X15229Y11289D01*
Y11266D01*
X15234Y11244D01*
X15246Y11224D01*
X15262Y11207D01*
X15282Y11196D01*
X15305Y11190D01*
X15328D01*
X15350Y11196D01*
X15370Y11207D01*
X15386Y11224D01*
X15398Y11244D01*
X15404Y11266D01*
Y11289D01*
X15398Y11311D01*
X15386Y11331D01*
X15370Y11348D01*
X15350Y11359D01*
X15328Y11365D01*
D02*
G37*
G36*
X15074D02*
X15051D01*
X15028Y11359D01*
X15008Y11348D01*
X14992Y11331D01*
X14980Y11311D01*
X14974Y11289D01*
Y11266D01*
X14980Y11244D01*
X14992Y11224D01*
X15008Y11207D01*
X15028Y11196D01*
X15051Y11190D01*
X15074D01*
X15096Y11196D01*
X15116Y11207D01*
X15132Y11224D01*
X15144Y11244D01*
X15150Y11266D01*
Y11289D01*
X15144Y11311D01*
X15132Y11331D01*
X15116Y11348D01*
X15096Y11359D01*
X15074Y11365D01*
D02*
G37*
G36*
X14896Y11271D02*
X14815D01*
Y11190D01*
X14820D01*
X14842Y11196D01*
X14862Y11207D01*
X14878Y11224D01*
X14890Y11244D01*
X14896Y11266D01*
Y11271D01*
D02*
G37*
G36*
X14802D02*
X14721D01*
Y11266D01*
X14726Y11244D01*
X14738Y11224D01*
X14754Y11207D01*
X14774Y11196D01*
X14797Y11190D01*
X14802D01*
Y11271D01*
D02*
G37*
G36*
X14566Y11365D02*
X14543D01*
X14520Y11359D01*
X14500Y11348D01*
X14484Y11331D01*
X14472Y11311D01*
X14466Y11289D01*
Y11266D01*
X14472Y11244D01*
X14484Y11224D01*
X14500Y11207D01*
X14520Y11196D01*
X14543Y11190D01*
X14566D01*
X14588Y11196D01*
X14608Y11207D01*
X14624Y11224D01*
X14636Y11244D01*
X14642Y11266D01*
Y11289D01*
X14636Y11311D01*
X14624Y11331D01*
X14608Y11348D01*
X14588Y11359D01*
X14566Y11365D01*
D02*
G37*
G36*
X14312D02*
X14289D01*
X14266Y11359D01*
X14246Y11348D01*
X14230Y11331D01*
X14218Y11311D01*
X14212Y11289D01*
Y11266D01*
X14218Y11244D01*
X14230Y11224D01*
X14246Y11207D01*
X14266Y11196D01*
X14289Y11190D01*
X14312D01*
X14334Y11196D01*
X14354Y11207D01*
X14370Y11224D01*
X14382Y11244D01*
X14388Y11266D01*
Y11289D01*
X14382Y11311D01*
X14370Y11331D01*
X14354Y11348D01*
X14334Y11359D01*
X14312Y11365D01*
D02*
G37*
G36*
X14058D02*
X14035D01*
X14012Y11359D01*
X13992Y11348D01*
X13976Y11331D01*
X13964Y11311D01*
X13959Y11289D01*
Y11266D01*
X13964Y11244D01*
X13976Y11224D01*
X13992Y11207D01*
X14012Y11196D01*
X14035Y11190D01*
X14058D01*
X14080Y11196D01*
X14100Y11207D01*
X14116Y11224D01*
X14128Y11244D01*
X14134Y11266D01*
Y11289D01*
X14128Y11311D01*
X14116Y11331D01*
X14100Y11348D01*
X14080Y11359D01*
X14058Y11365D01*
D02*
G37*
G36*
X13296D02*
X13273D01*
X13250Y11359D01*
X13230Y11348D01*
X13214Y11331D01*
X13202Y11311D01*
X13196Y11289D01*
Y11266D01*
X13202Y11244D01*
X13214Y11224D01*
X13230Y11207D01*
X13250Y11196D01*
X13273Y11190D01*
X13296D01*
X13318Y11196D01*
X13338Y11207D01*
X13354Y11224D01*
X13366Y11244D01*
X13372Y11266D01*
Y11289D01*
X13366Y11311D01*
X13354Y11331D01*
X13338Y11348D01*
X13318Y11359D01*
X13296Y11365D01*
D02*
G37*
G36*
X12864Y11271D02*
X12783D01*
Y11190D01*
X12788D01*
X12810Y11196D01*
X12830Y11207D01*
X12846Y11224D01*
X12858Y11244D01*
X12864Y11266D01*
Y11271D01*
D02*
G37*
G36*
X12770D02*
X12689D01*
Y11266D01*
X12694Y11244D01*
X12706Y11224D01*
X12722Y11207D01*
X12742Y11196D01*
X12765Y11190D01*
X12770D01*
Y11271D01*
D02*
G37*
G36*
X7339Y11365D02*
X7164D01*
Y11190D01*
X7339D01*
Y11365D01*
D02*
G37*
G36*
X7009D02*
X6986D01*
X6964Y11359D01*
X6944Y11348D01*
X6928Y11331D01*
X6916Y11311D01*
X6910Y11289D01*
Y11266D01*
X6916Y11244D01*
X6928Y11224D01*
X6944Y11207D01*
X6964Y11196D01*
X6986Y11190D01*
X7009D01*
X7032Y11196D01*
X7052Y11207D01*
X7068Y11224D01*
X7079Y11244D01*
X7085Y11266D01*
Y11289D01*
X7079Y11311D01*
X7068Y11331D01*
X7052Y11348D01*
X7032Y11359D01*
X7009Y11365D01*
D02*
G37*
G36*
X6755D02*
X6732D01*
X6710Y11359D01*
X6690Y11348D01*
X6674Y11331D01*
X6662Y11311D01*
X6656Y11289D01*
Y11266D01*
X6662Y11244D01*
X6674Y11224D01*
X6690Y11207D01*
X6710Y11196D01*
X6732Y11190D01*
X6755D01*
X6778Y11196D01*
X6798Y11207D01*
X6814Y11224D01*
X6825Y11244D01*
X6831Y11266D01*
Y11289D01*
X6825Y11311D01*
X6814Y11331D01*
X6798Y11348D01*
X6778Y11359D01*
X6755Y11365D01*
D02*
G37*
G36*
X6501D02*
X6478D01*
X6456Y11359D01*
X6436Y11348D01*
X6420Y11331D01*
X6408Y11311D01*
X6402Y11289D01*
Y11266D01*
X6408Y11244D01*
X6420Y11224D01*
X6436Y11207D01*
X6456Y11196D01*
X6478Y11190D01*
X6501D01*
X6524Y11196D01*
X6544Y11207D01*
X6560Y11224D01*
X6571Y11244D01*
X6577Y11266D01*
Y11289D01*
X6571Y11311D01*
X6560Y11331D01*
X6544Y11348D01*
X6524Y11359D01*
X6501Y11365D01*
D02*
G37*
G36*
X6323Y11271D02*
X6242D01*
Y11190D01*
X6247D01*
X6270Y11196D01*
X6290Y11207D01*
X6306Y11224D01*
X6317Y11244D01*
X6323Y11266D01*
Y11271D01*
D02*
G37*
G36*
X6229D02*
X6148D01*
Y11266D01*
X6154Y11244D01*
X6166Y11224D01*
X6182Y11207D01*
X6202Y11196D01*
X6224Y11190D01*
X6229D01*
Y11271D01*
D02*
G37*
G36*
X5993Y11365D02*
X5970D01*
X5948Y11359D01*
X5928Y11348D01*
X5912Y11331D01*
X5900Y11311D01*
X5894Y11289D01*
Y11266D01*
X5900Y11244D01*
X5912Y11224D01*
X5928Y11207D01*
X5948Y11196D01*
X5970Y11190D01*
X5993D01*
X6016Y11196D01*
X6036Y11207D01*
X6052Y11224D01*
X6063Y11244D01*
X6069Y11266D01*
Y11289D01*
X6063Y11311D01*
X6052Y11331D01*
X6036Y11348D01*
X6016Y11359D01*
X5993Y11365D01*
D02*
G37*
G36*
X5739D02*
X5716D01*
X5694Y11359D01*
X5674Y11348D01*
X5658Y11331D01*
X5646Y11311D01*
X5640Y11289D01*
Y11266D01*
X5646Y11244D01*
X5658Y11224D01*
X5674Y11207D01*
X5694Y11196D01*
X5716Y11190D01*
X5739D01*
X5762Y11196D01*
X5782Y11207D01*
X5798Y11224D01*
X5809Y11244D01*
X5815Y11266D01*
Y11289D01*
X5809Y11311D01*
X5798Y11331D01*
X5782Y11348D01*
X5762Y11359D01*
X5739Y11365D01*
D02*
G37*
G36*
X5485D02*
X5462D01*
X5440Y11359D01*
X5420Y11348D01*
X5404Y11331D01*
X5392Y11311D01*
X5386Y11289D01*
Y11266D01*
X5392Y11244D01*
X5404Y11224D01*
X5420Y11207D01*
X5440Y11196D01*
X5462Y11190D01*
X5485D01*
X5508Y11196D01*
X5528Y11207D01*
X5544Y11224D01*
X5555Y11244D01*
X5561Y11266D01*
Y11289D01*
X5555Y11311D01*
X5544Y11331D01*
X5528Y11348D01*
X5508Y11359D01*
X5485Y11365D01*
D02*
G37*
G36*
X5231D02*
X5208D01*
X5186Y11359D01*
X5166Y11348D01*
X5150Y11331D01*
X5138Y11311D01*
X5132Y11289D01*
Y11266D01*
X5138Y11244D01*
X5150Y11224D01*
X5166Y11207D01*
X5186Y11196D01*
X5208Y11190D01*
X5231D01*
X5254Y11196D01*
X5274Y11207D01*
X5290Y11224D01*
X5301Y11244D01*
X5307Y11266D01*
Y11289D01*
X5301Y11311D01*
X5290Y11331D01*
X5274Y11348D01*
X5254Y11359D01*
X5231Y11365D01*
D02*
G37*
G36*
X4723D02*
X4700D01*
X4678Y11359D01*
X4658Y11348D01*
X4642Y11331D01*
X4630Y11311D01*
X4624Y11289D01*
Y11266D01*
X4630Y11244D01*
X4642Y11224D01*
X4658Y11207D01*
X4678Y11196D01*
X4700Y11190D01*
X4723D01*
X4746Y11196D01*
X4766Y11207D01*
X4782Y11224D01*
X4793Y11244D01*
X4799Y11266D01*
Y11289D01*
X4793Y11311D01*
X4782Y11331D01*
X4766Y11348D01*
X4746Y11359D01*
X4723Y11365D01*
D02*
G37*
G36*
X4291Y11271D02*
X4210D01*
Y11190D01*
X4215D01*
X4238Y11196D01*
X4258Y11207D01*
X4274Y11224D01*
X4285Y11244D01*
X4291Y11266D01*
Y11271D01*
D02*
G37*
G36*
X4197D02*
X4116D01*
Y11266D01*
X4122Y11244D01*
X4134Y11224D01*
X4150Y11207D01*
X4170Y11196D01*
X4192Y11190D01*
X4197D01*
Y11271D01*
D02*
G37*
G36*
X4977Y11365D02*
X4954D01*
X4932Y11359D01*
X4912Y11348D01*
X4896Y11331D01*
X4884Y11311D01*
X4878Y11289D01*
Y11266D01*
X4884Y11244D01*
X4896Y11224D01*
X4912Y11207D01*
X4932Y11196D01*
X4954Y11190D01*
X4977D01*
X5000Y11196D01*
X5007Y11200D01*
X5053Y11154D01*
Y11073D01*
X5040Y11070D01*
X5036Y11077D01*
X5020Y11094D01*
X5000Y11105D01*
X4977Y11111D01*
X4972D01*
Y11024D01*
Y10936D01*
X4977D01*
X5000Y10942D01*
X5020Y10953D01*
X5036Y10970D01*
X5040Y10977D01*
X5053Y10974D01*
Y10728D01*
X5036Y10712D01*
X5033Y10714D01*
X5014Y10719D01*
X4994D01*
X4974Y10714D01*
X4957Y10704D01*
X4943Y10689D01*
X4933Y10672D01*
X4928Y10653D01*
Y10633D01*
X4933Y10613D01*
X4943Y10596D01*
X4957Y10582D01*
X4974Y10572D01*
X4994Y10566D01*
X5014D01*
X5033Y10572D01*
X5051Y10582D01*
X5065Y10596D01*
X5075Y10613D01*
X5080Y10633D01*
Y10653D01*
X5075Y10672D01*
X5073Y10675D01*
X5097Y10699D01*
X5103Y10708D01*
X5105Y10718D01*
Y11164D01*
X5103Y11174D01*
X5097Y11183D01*
X5043Y11237D01*
X5047Y11244D01*
X5053Y11266D01*
Y11289D01*
X5047Y11311D01*
X5036Y11331D01*
X5020Y11348D01*
X5000Y11359D01*
X4977Y11365D01*
D02*
G37*
G36*
X14312Y11111D02*
X14307D01*
Y11030D01*
X14388D01*
Y11035D01*
X14382Y11057D01*
X14370Y11077D01*
X14354Y11094D01*
X14334Y11105D01*
X14312Y11111D01*
D02*
G37*
G36*
X6755D02*
X6750D01*
Y11030D01*
X6831D01*
Y11035D01*
X6825Y11057D01*
X6814Y11077D01*
X6798Y11094D01*
X6778Y11105D01*
X6755Y11111D01*
D02*
G37*
G36*
X13550D02*
X13545D01*
Y11030D01*
X13626D01*
Y11035D01*
X13620Y11057D01*
X13608Y11077D01*
X13592Y11094D01*
X13572Y11105D01*
X13550Y11111D01*
D02*
G37*
G36*
X15328D02*
X15323D01*
Y11030D01*
X15404D01*
Y11035D01*
X15398Y11057D01*
X15386Y11077D01*
X15370Y11094D01*
X15350Y11105D01*
X15328Y11111D01*
D02*
G37*
G36*
X5739D02*
X5734D01*
Y11030D01*
X5815D01*
Y11035D01*
X5809Y11057D01*
X5798Y11077D01*
X5782Y11094D01*
X5762Y11105D01*
X5739Y11111D01*
D02*
G37*
G36*
X14294D02*
X14289D01*
X14266Y11105D01*
X14246Y11094D01*
X14230Y11077D01*
X14218Y11057D01*
X14212Y11035D01*
Y11030D01*
X14294D01*
Y11111D01*
D02*
G37*
G36*
X6737D02*
X6732D01*
X6710Y11105D01*
X6690Y11094D01*
X6674Y11077D01*
X6662Y11057D01*
X6656Y11035D01*
Y11030D01*
X6737D01*
Y11111D01*
D02*
G37*
G36*
X13532D02*
X13527D01*
X13504Y11105D01*
X13484Y11094D01*
X13468Y11077D01*
X13456Y11057D01*
X13451Y11035D01*
Y11030D01*
X13532D01*
Y11111D01*
D02*
G37*
G36*
X4959D02*
X4954D01*
X4932Y11105D01*
X4912Y11094D01*
X4896Y11077D01*
X4884Y11057D01*
X4878Y11035D01*
Y11030D01*
X4959D01*
Y11111D01*
D02*
G37*
G36*
X15310D02*
X15305D01*
X15282Y11105D01*
X15262Y11094D01*
X15246Y11077D01*
X15234Y11057D01*
X15229Y11035D01*
Y11030D01*
X15310D01*
Y11111D01*
D02*
G37*
G36*
X5721D02*
X5716D01*
X5694Y11105D01*
X5674Y11094D01*
X5658Y11077D01*
X5646Y11057D01*
X5640Y11035D01*
Y11030D01*
X5721D01*
Y11111D01*
D02*
G37*
G36*
X13804D02*
X13781D01*
X13758Y11105D01*
X13738Y11094D01*
X13722Y11077D01*
X13710Y11057D01*
X13704Y11035D01*
Y11030D01*
X13679D01*
X13669Y11028D01*
X13661Y11023D01*
X13635Y10997D01*
X13624Y11004D01*
X13626Y11012D01*
Y11017D01*
X13545D01*
Y10936D01*
X13550D01*
X13558Y10938D01*
X13565Y10927D01*
X13218Y10580D01*
X12899D01*
X12898Y10583D01*
X12888Y10600D01*
X12874Y10615D01*
X12856Y10625D01*
X12837Y10630D01*
X12817D01*
X12798Y10625D01*
X12780Y10615D01*
X12766Y10600D01*
X12756Y10583D01*
X12751Y10564D01*
Y10544D01*
X12756Y10524D01*
X12766Y10507D01*
X12780Y10493D01*
X12798Y10483D01*
X12817Y10478D01*
X12837D01*
X12856Y10483D01*
X12874Y10493D01*
X12888Y10507D01*
X12898Y10524D01*
X12899Y10528D01*
X13228D01*
X13238Y10530D01*
X13247Y10535D01*
X13690Y10979D01*
X13717D01*
X13722Y10970D01*
X13738Y10953D01*
X13758Y10942D01*
X13781Y10936D01*
X13804D01*
X13826Y10942D01*
X13846Y10953D01*
X13862Y10970D01*
X13874Y10990D01*
X13880Y11012D01*
Y11035D01*
X13874Y11057D01*
X13862Y11077D01*
X13846Y11094D01*
X13826Y11105D01*
X13804Y11111D01*
D02*
G37*
G36*
X15836D02*
X15813D01*
X15790Y11105D01*
X15770Y11094D01*
X15754Y11077D01*
X15742Y11057D01*
X15737Y11035D01*
Y11012D01*
X15742Y10990D01*
X15754Y10970D01*
X15770Y10953D01*
X15790Y10942D01*
X15813Y10936D01*
X15836D01*
X15858Y10942D01*
X15878Y10953D01*
X15894Y10970D01*
X15906Y10990D01*
X15912Y11012D01*
Y11035D01*
X15906Y11057D01*
X15894Y11077D01*
X15878Y11094D01*
X15858Y11105D01*
X15836Y11111D01*
D02*
G37*
G36*
X15582D02*
X15559D01*
X15536Y11105D01*
X15516Y11094D01*
X15500Y11077D01*
X15488Y11057D01*
X15482Y11035D01*
Y11012D01*
X15488Y10990D01*
X15500Y10970D01*
X15516Y10953D01*
X15536Y10942D01*
X15559Y10936D01*
X15582D01*
X15604Y10942D01*
X15624Y10953D01*
X15640Y10970D01*
X15652Y10990D01*
X15658Y11012D01*
Y11035D01*
X15652Y11057D01*
X15640Y11077D01*
X15624Y11094D01*
X15604Y11105D01*
X15582Y11111D01*
D02*
G37*
G36*
X15404Y11017D02*
X15323D01*
Y10936D01*
X15328D01*
X15350Y10942D01*
X15370Y10953D01*
X15386Y10970D01*
X15398Y10990D01*
X15404Y11012D01*
Y11017D01*
D02*
G37*
G36*
X15310D02*
X15229D01*
Y11012D01*
X15234Y10990D01*
X15246Y10970D01*
X15262Y10953D01*
X15282Y10942D01*
X15305Y10936D01*
X15310D01*
Y11017D01*
D02*
G37*
G36*
X15074Y11111D02*
X15051D01*
X15028Y11105D01*
X15008Y11094D01*
X14992Y11077D01*
X14980Y11057D01*
X14974Y11035D01*
Y11012D01*
X14980Y10990D01*
X14992Y10970D01*
X15008Y10953D01*
X15028Y10942D01*
X15051Y10936D01*
X15074D01*
X15096Y10942D01*
X15116Y10953D01*
X15132Y10970D01*
X15144Y10990D01*
X15150Y11012D01*
Y11035D01*
X15144Y11057D01*
X15132Y11077D01*
X15116Y11094D01*
X15096Y11105D01*
X15074Y11111D01*
D02*
G37*
G36*
X14820D02*
X14797D01*
X14774Y11105D01*
X14754Y11094D01*
X14738Y11077D01*
X14726Y11057D01*
X14721Y11035D01*
Y11012D01*
X14726Y10990D01*
X14738Y10970D01*
X14754Y10953D01*
X14774Y10942D01*
X14797Y10936D01*
X14820D01*
X14842Y10942D01*
X14862Y10953D01*
X14878Y10970D01*
X14890Y10990D01*
X14896Y11012D01*
Y11035D01*
X14890Y11057D01*
X14878Y11077D01*
X14862Y11094D01*
X14842Y11105D01*
X14820Y11111D01*
D02*
G37*
G36*
X14566D02*
X14543D01*
X14520Y11105D01*
X14500Y11094D01*
X14484Y11077D01*
X14472Y11057D01*
X14466Y11035D01*
Y11012D01*
X14472Y10990D01*
X14484Y10970D01*
X14500Y10953D01*
X14520Y10942D01*
X14543Y10936D01*
X14566D01*
X14588Y10942D01*
X14608Y10953D01*
X14624Y10970D01*
X14636Y10990D01*
X14642Y11012D01*
Y11035D01*
X14636Y11057D01*
X14624Y11077D01*
X14608Y11094D01*
X14588Y11105D01*
X14566Y11111D01*
D02*
G37*
G36*
X14388Y11017D02*
X14307D01*
Y10936D01*
X14312D01*
X14334Y10942D01*
X14354Y10953D01*
X14370Y10970D01*
X14382Y10990D01*
X14388Y11012D01*
Y11017D01*
D02*
G37*
G36*
X14294D02*
X14212D01*
Y11012D01*
X14218Y10990D01*
X14230Y10970D01*
X14246Y10953D01*
X14266Y10942D01*
X14289Y10936D01*
X14294D01*
Y11017D01*
D02*
G37*
G36*
X13532D02*
X13451D01*
Y11012D01*
X13456Y10990D01*
X13468Y10970D01*
X13484Y10953D01*
X13504Y10942D01*
X13527Y10936D01*
X13532D01*
Y11017D01*
D02*
G37*
G36*
X12788Y11111D02*
X12765D01*
X12742Y11105D01*
X12722Y11094D01*
X12706Y11077D01*
X12694Y11057D01*
X12689Y11035D01*
Y11012D01*
X12694Y10990D01*
X12706Y10970D01*
X12722Y10953D01*
X12742Y10942D01*
X12765Y10936D01*
X12788D01*
X12810Y10942D01*
X12830Y10953D01*
X12846Y10970D01*
X12858Y10990D01*
X12864Y11012D01*
Y11035D01*
X12858Y11057D01*
X12846Y11077D01*
X12830Y11094D01*
X12810Y11105D01*
X12788Y11111D01*
D02*
G37*
G36*
X7263D02*
X7240D01*
X7218Y11105D01*
X7198Y11094D01*
X7182Y11077D01*
X7170Y11057D01*
X7164Y11035D01*
Y11012D01*
X7170Y10990D01*
X7182Y10970D01*
X7198Y10953D01*
X7218Y10942D01*
X7240Y10936D01*
X7263D01*
X7286Y10942D01*
X7306Y10953D01*
X7322Y10970D01*
X7333Y10990D01*
X7339Y11012D01*
Y11035D01*
X7333Y11057D01*
X7322Y11077D01*
X7306Y11094D01*
X7286Y11105D01*
X7263Y11111D01*
D02*
G37*
G36*
X7009D02*
X6986D01*
X6964Y11105D01*
X6944Y11094D01*
X6928Y11077D01*
X6916Y11057D01*
X6910Y11035D01*
Y11012D01*
X6916Y10990D01*
X6928Y10970D01*
X6944Y10953D01*
X6964Y10942D01*
X6986Y10936D01*
X7009D01*
X7032Y10942D01*
X7052Y10953D01*
X7068Y10970D01*
X7079Y10990D01*
X7085Y11012D01*
Y11035D01*
X7079Y11057D01*
X7068Y11077D01*
X7052Y11094D01*
X7032Y11105D01*
X7009Y11111D01*
D02*
G37*
G36*
X6831Y11017D02*
X6750D01*
Y10936D01*
X6755D01*
X6778Y10942D01*
X6798Y10953D01*
X6814Y10970D01*
X6825Y10990D01*
X6831Y11012D01*
Y11017D01*
D02*
G37*
G36*
X6737D02*
X6656D01*
Y11012D01*
X6662Y10990D01*
X6674Y10970D01*
X6690Y10953D01*
X6710Y10942D01*
X6732Y10936D01*
X6737D01*
Y11017D01*
D02*
G37*
G36*
X6501Y11111D02*
X6478D01*
X6456Y11105D01*
X6436Y11094D01*
X6420Y11077D01*
X6408Y11057D01*
X6402Y11035D01*
Y11012D01*
X6408Y10990D01*
X6420Y10970D01*
X6436Y10953D01*
X6456Y10942D01*
X6478Y10936D01*
X6501D01*
X6524Y10942D01*
X6544Y10953D01*
X6560Y10970D01*
X6571Y10990D01*
X6577Y11012D01*
Y11035D01*
X6571Y11057D01*
X6560Y11077D01*
X6544Y11094D01*
X6524Y11105D01*
X6501Y11111D01*
D02*
G37*
G36*
X6247D02*
X6224D01*
X6202Y11105D01*
X6182Y11094D01*
X6166Y11077D01*
X6154Y11057D01*
X6148Y11035D01*
Y11012D01*
X6154Y10990D01*
X6166Y10970D01*
X6182Y10953D01*
X6202Y10942D01*
X6224Y10936D01*
X6247D01*
X6270Y10942D01*
X6290Y10953D01*
X6306Y10970D01*
X6317Y10990D01*
X6323Y11012D01*
Y11035D01*
X6317Y11057D01*
X6306Y11077D01*
X6290Y11094D01*
X6270Y11105D01*
X6247Y11111D01*
D02*
G37*
G36*
X5993D02*
X5970D01*
X5948Y11105D01*
X5928Y11094D01*
X5912Y11077D01*
X5900Y11057D01*
X5894Y11035D01*
Y11012D01*
X5900Y10990D01*
X5912Y10970D01*
X5928Y10953D01*
X5948Y10942D01*
X5970Y10936D01*
X5993D01*
X6016Y10942D01*
X6036Y10953D01*
X6052Y10970D01*
X6063Y10990D01*
X6069Y11012D01*
Y11035D01*
X6063Y11057D01*
X6052Y11077D01*
X6036Y11094D01*
X6016Y11105D01*
X5993Y11111D01*
D02*
G37*
G36*
X5815Y11017D02*
X5734D01*
Y10936D01*
X5739D01*
X5762Y10942D01*
X5782Y10953D01*
X5798Y10970D01*
X5809Y10990D01*
X5815Y11012D01*
Y11017D01*
D02*
G37*
G36*
X5721D02*
X5640D01*
Y11012D01*
X5646Y10990D01*
X5658Y10970D01*
X5674Y10953D01*
X5694Y10942D01*
X5716Y10936D01*
X5721D01*
Y11017D01*
D02*
G37*
G36*
X5485Y11111D02*
X5462D01*
X5440Y11105D01*
X5420Y11094D01*
X5404Y11077D01*
X5392Y11057D01*
X5386Y11035D01*
Y11012D01*
X5392Y10990D01*
X5404Y10970D01*
X5420Y10953D01*
X5440Y10942D01*
X5462Y10936D01*
X5485D01*
X5508Y10942D01*
X5528Y10953D01*
X5544Y10970D01*
X5555Y10990D01*
X5561Y11012D01*
Y11035D01*
X5555Y11057D01*
X5544Y11077D01*
X5528Y11094D01*
X5508Y11105D01*
X5485Y11111D01*
D02*
G37*
G36*
X4959Y11017D02*
X4878D01*
Y11012D01*
X4884Y10990D01*
X4896Y10970D01*
X4912Y10953D01*
X4932Y10942D01*
X4954Y10936D01*
X4959D01*
Y11017D01*
D02*
G37*
G36*
X4723Y11111D02*
X4700D01*
X4678Y11105D01*
X4658Y11094D01*
X4642Y11077D01*
X4630Y11057D01*
X4624Y11035D01*
Y11012D01*
X4630Y10990D01*
X4642Y10970D01*
X4658Y10953D01*
X4678Y10942D01*
X4700Y10936D01*
X4723D01*
X4746Y10942D01*
X4766Y10953D01*
X4782Y10970D01*
X4793Y10990D01*
X4799Y11012D01*
Y11035D01*
X4793Y11057D01*
X4782Y11077D01*
X4766Y11094D01*
X4746Y11105D01*
X4723Y11111D01*
D02*
G37*
G36*
X13296D02*
X13273D01*
X13250Y11105D01*
X13230Y11094D01*
X13214Y11077D01*
X13202Y11057D01*
X13196Y11035D01*
Y11012D01*
X13202Y10990D01*
X13214Y10970D01*
X13230Y10953D01*
X13250Y10942D01*
X13258Y10940D01*
Y10870D01*
X13242Y10866D01*
X13225Y10856D01*
X13211Y10842D01*
X13200Y10824D01*
X13195Y10805D01*
Y10785D01*
X13200Y10766D01*
X13211Y10748D01*
X13225Y10734D01*
X13242Y10724D01*
X13261Y10719D01*
X13282D01*
X13301Y10724D01*
X13318Y10734D01*
X13332Y10748D01*
X13343Y10766D01*
X13348Y10785D01*
Y10805D01*
X13343Y10824D01*
X13332Y10842D01*
X13318Y10856D01*
X13310Y10861D01*
Y10940D01*
X13318Y10942D01*
X13338Y10953D01*
X13354Y10970D01*
X13366Y10990D01*
X13372Y11012D01*
Y11035D01*
X13366Y11057D01*
X13354Y11077D01*
X13338Y11094D01*
X13318Y11105D01*
X13296Y11111D01*
D02*
G37*
G36*
X4887Y10528D02*
X4867D01*
X4847Y10523D01*
X4830Y10513D01*
X4816Y10499D01*
X4806Y10482D01*
X4801Y10462D01*
Y10442D01*
X4806Y10423D01*
X4816Y10405D01*
X4830Y10391D01*
X4847Y10381D01*
X4867Y10376D01*
X4887D01*
X4906Y10381D01*
X4924Y10391D01*
X4938Y10405D01*
X4948Y10423D01*
X4953Y10442D01*
Y10462D01*
X4948Y10482D01*
X4938Y10499D01*
X4924Y10513D01*
X4906Y10523D01*
X4887Y10528D01*
D02*
G37*
G36*
X6501Y9638D02*
X6496D01*
Y9557D01*
X6577D01*
Y9562D01*
X6571Y9584D01*
X6560Y9604D01*
X6544Y9621D01*
X6524Y9632D01*
X6501Y9638D01*
D02*
G37*
G36*
X6483D02*
X6478D01*
X6456Y9632D01*
X6436Y9621D01*
X6420Y9604D01*
X6408Y9584D01*
X6402Y9562D01*
Y9557D01*
X6483D01*
Y9638D01*
D02*
G37*
G36*
X6577Y9544D02*
X6496D01*
Y9463D01*
X6501D01*
X6524Y9469D01*
X6544Y9480D01*
X6560Y9497D01*
X6571Y9517D01*
X6577Y9539D01*
Y9544D01*
D02*
G37*
G36*
X6483D02*
X6402D01*
Y9539D01*
X6408Y9517D01*
X6420Y9497D01*
X6436Y9480D01*
X6456Y9469D01*
X6478Y9463D01*
X6483D01*
Y9544D01*
D02*
G37*
G36*
X6247Y9638D02*
X6224D01*
X6202Y9632D01*
X6182Y9621D01*
X6166Y9604D01*
X6154Y9584D01*
X6148Y9562D01*
Y9539D01*
X6154Y9517D01*
X6166Y9497D01*
X6182Y9480D01*
X6202Y9469D01*
X6224Y9463D01*
X6247D01*
X6270Y9469D01*
X6290Y9480D01*
X6306Y9497D01*
X6317Y9517D01*
X6323Y9539D01*
Y9562D01*
X6317Y9584D01*
X6306Y9604D01*
X6290Y9621D01*
X6270Y9632D01*
X6247Y9638D01*
D02*
G37*
G36*
X5052Y10350D02*
X5032D01*
X5012Y10345D01*
X4995Y10335D01*
X4981Y10321D01*
X4971Y10304D01*
X4966Y10284D01*
Y10264D01*
X4971Y10245D01*
X4981Y10228D01*
X4995Y10213D01*
X5003Y10209D01*
Y9881D01*
X5005Y9871D01*
X5011Y9862D01*
X5194Y9679D01*
Y9634D01*
X5186Y9632D01*
X5166Y9621D01*
X5150Y9604D01*
X5138Y9584D01*
X5132Y9562D01*
Y9539D01*
X5138Y9517D01*
X5150Y9497D01*
X5166Y9480D01*
X5186Y9469D01*
X5208Y9463D01*
X5231D01*
X5254Y9469D01*
X5274Y9480D01*
X5290Y9497D01*
X5301Y9517D01*
X5307Y9539D01*
Y9562D01*
X5301Y9584D01*
X5290Y9604D01*
X5274Y9621D01*
X5254Y9632D01*
X5246Y9634D01*
Y9690D01*
X5244Y9700D01*
X5238Y9708D01*
X5055Y9891D01*
Y10199D01*
X5071Y10203D01*
X5089Y10213D01*
X5103Y10228D01*
X5113Y10245D01*
X5118Y10264D01*
Y10284D01*
X5113Y10304D01*
X5103Y10321D01*
X5089Y10335D01*
X5071Y10345D01*
X5052Y10350D01*
D02*
G37*
%LPD*%
D11*
X4223Y10912D02*
G03*
X4317Y11024I-20J111D01*
G01*
X5692Y9373D02*
X5869Y9549D01*
X4210Y9709D02*
X4547Y9373D01*
X5692D01*
X5334Y9423D02*
X5359Y9449D01*
X4966Y9550D02*
X5093Y9423D01*
X5334D01*
X5359Y9449D02*
Y9728D01*
X5283Y9804D02*
X5359Y9728D01*
X5283Y9804D02*
Y10338D01*
X4690Y9572D02*
X4712Y9550D01*
X4432Y9754D02*
X4613Y9572D01*
X4432Y9754D02*
Y10964D01*
X4458Y10990D01*
Y11024D01*
X4613Y9572D02*
X4690D01*
X4210Y9709D02*
Y10899D01*
X5029Y9881D02*
Y10224D01*
Y9881D02*
X5220Y9690D01*
X5029Y10224D02*
X5080Y10274D01*
X5321Y10376D02*
Y10414D01*
X5372Y10465D01*
X5283Y10338D02*
X5321Y10376D01*
X5220Y9550D02*
Y9690D01*
X5474Y10336D02*
X5552Y10414D01*
X5474Y9550D02*
Y10336D01*
X5552Y10414D02*
X13297D01*
X5869Y9549D02*
X5981D01*
X5982Y9550D01*
X6165Y9734D02*
Y10102D01*
X5982Y9550D02*
X6165Y9734D01*
Y10102D02*
X6325Y10262D01*
X4185Y11259D02*
X4204Y11278D01*
X4439Y11259D02*
X4458Y11278D01*
X4439Y11164D02*
Y11259D01*
X4210Y10899D02*
X4218Y10907D01*
X4324Y11050D02*
X4439Y11164D01*
X4317Y11043D02*
X4324Y11050D01*
X4218Y10907D02*
X4223Y10912D01*
X4317Y11024D02*
X4317Y11043D01*
X13903Y11164D02*
X13932Y11136D01*
Y10880D02*
Y11136D01*
X13538Y11278D02*
X13651Y11164D01*
X13903D01*
X13047Y9995D02*
X13932Y10880D01*
X6388Y9995D02*
X13047D01*
X5079Y10718D02*
Y11164D01*
X5004Y10643D02*
X5079Y10718D01*
X4966Y11278D02*
X5079Y11164D01*
X6325Y10262D02*
X13145D01*
Y10770D02*
Y11163D01*
X13030Y11278D02*
X13145Y11163D01*
X13284Y10782D02*
Y11024D01*
X13297Y10414D02*
X13487Y10604D01*
X13228Y10554D02*
X13679Y11005D01*
X12802Y10554D02*
X12827D01*
X13228D01*
X5372Y10465D02*
X12471D01*
X13030Y11024D01*
X5220Y10566D02*
X12421D01*
X12433Y10579D01*
X13773Y11005D02*
X13792Y11024D01*
X13679Y11005D02*
X13773D01*
X5220Y10566D02*
Y11024D01*
D16*
X4712Y9550D02*
D03*
X15824Y11278D02*
D03*
X7252D02*
D03*
D17*
X4966Y9550D02*
D03*
X5220D02*
D03*
X5474D02*
D03*
X5728D02*
D03*
X5982D02*
D03*
X6236D02*
D03*
X6490D02*
D03*
X15824Y11024D02*
D03*
X15570Y11278D02*
D03*
Y11024D02*
D03*
X15316Y11278D02*
D03*
Y11024D02*
D03*
X15062Y11278D02*
D03*
Y11024D02*
D03*
X14808Y11278D02*
D03*
Y11024D02*
D03*
X14554Y11278D02*
D03*
Y11024D02*
D03*
X14300Y11278D02*
D03*
Y11024D02*
D03*
X14046Y11278D02*
D03*
Y11024D02*
D03*
X13792Y11278D02*
D03*
Y11024D02*
D03*
X13538Y11278D02*
D03*
Y11024D02*
D03*
X13284Y11278D02*
D03*
Y11024D02*
D03*
X13030Y11278D02*
D03*
Y11024D02*
D03*
X12776Y11278D02*
D03*
Y11024D02*
D03*
X7252D02*
D03*
X6998Y11278D02*
D03*
Y11024D02*
D03*
X6744Y11278D02*
D03*
Y11024D02*
D03*
X6490Y11278D02*
D03*
Y11024D02*
D03*
X6236Y11278D02*
D03*
Y11024D02*
D03*
X5982Y11278D02*
D03*
Y11024D02*
D03*
X5728Y11278D02*
D03*
Y11024D02*
D03*
X5474Y11278D02*
D03*
Y11024D02*
D03*
X5220Y11278D02*
D03*
Y11024D02*
D03*
X4966Y11278D02*
D03*
Y11024D02*
D03*
X4712Y11278D02*
D03*
Y11024D02*
D03*
X4458Y11278D02*
D03*
Y11024D02*
D03*
X4204Y11278D02*
D03*
Y11024D02*
D03*
D18*
X5042Y10274D02*
D03*
X6388Y9995D02*
D03*
X4877Y10452D02*
D03*
X5004Y10643D02*
D03*
X13106Y10744D02*
D03*
X13145Y10262D02*
D03*
X13487Y10579D02*
D03*
X13271Y10795D02*
D03*
X12827Y10554D02*
D03*
X12421Y10579D02*
D03*
X5220Y10566D02*
D03*
D19*
X4218Y10907D02*
D03*
M02*
